<svg width="362" height="29" viewBox="0 0 362 29" fill="none" xmlns="http://www.w3.org/2000/svg">
<rect width="361.292" height="29" rx="14.5" fill="white"/>
<path d="M205.224 11.2214C205.16 10.6218 204.89 10.1549 204.414 9.82079C203.942 9.48667 203.329 9.31961 202.574 9.31961C202.043 9.31961 201.587 9.3997 201.207 9.5599C200.827 9.7201 200.537 9.9375 200.335 10.2121C200.134 10.4867 200.031 10.8003 200.026 11.1527C200.026 11.4456 200.093 11.6997 200.226 11.9148C200.363 12.1299 200.548 12.313 200.782 12.464C201.015 12.6105 201.274 12.7341 201.557 12.8348C201.841 12.9355 202.127 13.0201 202.416 13.0888L203.734 13.4183C204.265 13.5419 204.775 13.709 205.265 13.9195C205.759 14.1301 206.201 14.3955 206.59 14.7159C206.984 15.0363 207.295 15.4231 207.524 15.8762C207.752 16.3293 207.867 16.8602 207.867 17.469C207.867 18.2929 207.656 19.0183 207.235 19.6454C206.814 20.2678 206.205 20.7553 205.409 21.1077C204.617 21.4556 203.658 21.6295 202.532 21.6295C201.438 21.6295 200.489 21.4602 199.683 21.1215C198.882 20.7828 198.255 20.2884 197.802 19.6385C197.353 18.9886 197.111 18.1967 197.074 17.263H199.58C199.617 17.7528 199.768 18.1601 200.033 18.4851C200.299 18.8101 200.644 19.0526 201.07 19.2128C201.5 19.373 201.981 19.4531 202.512 19.4531C203.066 19.4531 203.551 19.3707 203.967 19.206C204.388 19.0366 204.718 18.8032 204.956 18.5057C205.194 18.2036 205.315 17.8512 205.32 17.4484C205.315 17.0822 205.208 16.7801 204.997 16.5421C204.787 16.2996 204.491 16.0982 204.111 15.938C203.736 15.7732 203.297 15.6267 202.793 15.4986L201.194 15.0867C200.036 14.7891 199.12 14.3383 198.447 13.7341C197.779 13.1254 197.445 12.3176 197.445 11.3106C197.445 10.4822 197.669 9.75671 198.118 9.13424C198.571 8.51176 199.187 8.02889 199.965 7.68561C200.743 7.33776 201.624 7.16383 202.608 7.16383C203.606 7.16383 204.48 7.33776 205.231 7.68561C205.986 8.02889 206.578 8.50719 207.009 9.12051C207.439 9.72925 207.661 10.4295 207.675 11.2214H205.224ZM216.749 16.9815V10.8712H219.234V21.4167H216.825V19.5424H216.715C216.477 20.1328 216.085 20.6157 215.541 20.991C215.001 21.3663 214.335 21.554 213.543 21.554C212.852 21.554 212.241 21.4007 211.71 21.094C211.184 20.7828 210.772 20.3319 210.474 19.7415C210.177 19.1465 210.028 18.4279 210.028 17.5857V10.8712H212.513V17.2012C212.513 17.8695 212.696 18.4004 213.062 18.794C213.429 19.1877 213.909 19.3845 214.504 19.3845C214.87 19.3845 215.225 19.2952 215.568 19.1167C215.912 18.9382 216.193 18.6727 216.413 18.3203C216.637 17.9633 216.749 17.5171 216.749 16.9815ZM226.39 21.6226C225.337 21.6226 224.433 21.3915 223.678 20.9292C222.928 20.4669 222.349 19.8284 221.941 19.0137C221.538 18.1944 221.337 17.2516 221.337 16.1851C221.337 15.1141 221.543 14.169 221.955 13.3497C222.367 12.5258 222.948 11.885 223.699 11.4273C224.454 10.965 225.347 10.7339 226.376 10.7339C227.232 10.7339 227.99 10.8918 228.649 11.2076C229.313 11.5189 229.841 11.9605 230.235 12.5327C230.628 13.1002 230.853 13.7639 230.908 14.5237H228.532C228.436 14.0156 228.207 13.5923 227.846 13.2536C227.489 12.9103 227.01 12.7386 226.411 12.7386C225.903 12.7386 225.456 12.876 225.072 13.1506C224.687 13.4206 224.388 13.8097 224.173 14.3177C223.962 14.8258 223.857 15.4345 223.857 16.1439C223.857 16.8625 223.962 17.4804 224.173 17.9976C224.383 18.5103 224.678 18.9062 225.058 19.1854C225.443 19.46 225.893 19.5973 226.411 19.5973C226.777 19.5973 227.104 19.5287 227.392 19.3913C227.685 19.2495 227.93 19.0458 228.127 18.7803C228.324 18.5148 228.459 18.1922 228.532 17.8123H230.908C230.848 18.5583 230.628 19.2197 230.249 19.7964C229.869 20.3685 229.351 20.8171 228.697 21.1421C228.042 21.4624 227.273 21.6226 226.39 21.6226ZM237.548 21.6226C236.496 21.6226 235.592 21.3915 234.836 20.9292C234.086 20.4669 233.507 19.8284 233.099 19.0137C232.697 18.1944 232.495 17.2516 232.495 16.1851C232.495 15.1141 232.701 14.169 233.113 13.3497C233.525 12.5258 234.106 11.885 234.857 11.4273C235.612 10.965 236.505 10.7339 237.535 10.7339C238.39 10.7339 239.148 10.8918 239.807 11.2076C240.471 11.5189 240.999 11.9605 241.393 12.5327C241.787 13.1002 242.011 13.7639 242.066 14.5237H239.69C239.594 14.0156 239.365 13.5923 239.004 13.2536C238.647 12.9103 238.168 12.7386 237.569 12.7386C237.061 12.7386 236.615 12.876 236.23 13.1506C235.846 13.4206 235.546 13.8097 235.331 14.3177C235.12 14.8258 235.015 15.4345 235.015 16.1439C235.015 16.8625 235.12 17.4804 235.331 17.9976C235.541 18.5103 235.836 18.9062 236.216 19.1854C236.601 19.46 237.052 19.5973 237.569 19.5973C237.935 19.5973 238.262 19.5287 238.551 19.3913C238.844 19.2495 239.088 19.0458 239.285 18.7803C239.482 18.5148 239.617 18.1922 239.69 17.8123H242.066C242.006 18.5583 241.787 19.2197 241.407 19.7964C241.027 20.3685 240.51 20.8171 239.855 21.1421C239.201 21.4624 238.432 21.6226 237.548 21.6226ZM248.775 21.6226C247.718 21.6226 246.805 21.4029 246.036 20.9635C245.271 20.5196 244.683 19.8925 244.271 19.0824C243.859 18.2677 243.653 17.3088 243.653 16.2057C243.653 15.121 243.859 14.169 244.271 13.3497C244.688 12.5258 245.269 11.885 246.015 11.4273C246.761 10.965 247.638 10.7339 248.645 10.7339C249.295 10.7339 249.908 10.8392 250.485 11.0497C251.066 11.2557 251.579 11.5761 252.023 12.0109C252.471 12.4457 252.824 12.9995 253.08 13.6724C253.336 14.3406 253.464 15.137 253.464 16.0616V16.8236H244.821V15.1484H251.082C251.077 14.6724 250.974 14.2491 250.773 13.8783C250.572 13.503 250.29 13.2078 249.929 12.9927C249.572 12.7775 249.155 12.67 248.679 12.67C248.171 12.67 247.725 12.7936 247.34 13.0407C246.956 13.2833 246.656 13.6037 246.441 14.0019C246.23 14.3955 246.123 14.8281 246.118 15.2995V16.7618C246.118 17.3752 246.23 17.9015 246.455 18.3409C246.679 18.7757 246.992 19.1099 247.395 19.3433C247.798 19.5721 248.269 19.6866 248.809 19.6866C249.171 19.6866 249.498 19.6362 249.791 19.5355C250.084 19.4302 250.338 19.2769 250.553 19.0755C250.768 18.8741 250.931 18.6247 251.041 18.3272L253.361 18.5881C253.215 19.2014 252.936 19.7369 252.524 20.1946C252.116 20.6477 251.595 21.0002 250.958 21.2519C250.322 21.4991 249.594 21.6226 248.775 21.6226ZM263.902 13.6586L261.636 13.9058C261.572 13.6769 261.46 13.4618 261.3 13.2604C261.144 13.059 260.933 12.8965 260.668 12.773C260.402 12.6494 260.078 12.5876 259.693 12.5876C259.176 12.5876 258.741 12.6997 258.389 12.924C258.041 13.1483 257.869 13.4389 257.874 13.7959C257.869 14.1026 257.981 14.352 258.21 14.5443C258.444 14.7365 258.828 14.8944 259.364 15.018L261.162 15.4025C262.16 15.6176 262.902 15.9586 263.387 16.4254C263.876 16.8923 264.124 17.5033 264.128 18.2585C264.124 18.9222 263.929 19.5081 263.545 20.0161C263.165 20.5196 262.636 20.9132 261.959 21.197C261.281 21.4808 260.503 21.6226 259.624 21.6226C258.334 21.6226 257.295 21.3526 256.507 20.8125C255.72 20.2678 255.251 19.5103 255.1 18.54L257.524 18.3066C257.633 18.7826 257.867 19.1419 258.224 19.3845C258.581 19.6271 259.045 19.7483 259.618 19.7483C260.208 19.7483 260.682 19.6271 261.039 19.3845C261.4 19.1419 261.581 18.8421 261.581 18.4851C261.581 18.183 261.464 17.9336 261.231 17.7367C261.002 17.5399 260.645 17.3889 260.16 17.2836L258.361 16.906C257.35 16.6955 256.601 16.3408 256.116 15.8419C255.631 15.3384 255.391 14.7022 255.395 13.9332C255.391 13.2833 255.567 12.7203 255.924 12.2443C256.285 11.7637 256.787 11.393 257.427 11.1321C258.073 10.8666 258.817 10.7339 259.659 10.7339C260.895 10.7339 261.867 10.9971 262.577 11.5234C263.291 12.0498 263.732 12.7615 263.902 13.6586ZM274.512 13.6586L272.247 13.9058C272.183 13.6769 272.07 13.4618 271.91 13.2604C271.755 13.059 271.544 12.8965 271.279 12.773C271.013 12.6494 270.688 12.5876 270.304 12.5876C269.787 12.5876 269.352 12.6997 268.999 12.924C268.651 13.1483 268.48 13.4389 268.484 13.7959C268.48 14.1026 268.592 14.352 268.821 14.5443C269.054 14.7365 269.439 14.8944 269.974 15.018L271.773 15.4025C272.771 15.6176 273.512 15.9586 273.997 16.4254C274.487 16.8923 274.734 17.5033 274.739 18.2585C274.734 18.9222 274.54 19.5081 274.155 20.0161C273.775 20.5196 273.247 20.9132 272.569 21.197C271.892 21.4808 271.114 21.6226 270.235 21.6226C268.944 21.6226 267.905 21.3526 267.118 20.8125C266.331 20.2678 265.862 19.5103 265.711 18.54L268.134 18.3066C268.244 18.7826 268.477 19.1419 268.835 19.3845C269.192 19.6271 269.656 19.7483 270.228 19.7483C270.819 19.7483 271.292 19.6271 271.649 19.3845C272.011 19.1419 272.192 18.8421 272.192 18.4851C272.192 18.183 272.075 17.9336 271.842 17.7367C271.613 17.5399 271.256 17.3889 270.771 17.2836L268.972 16.906C267.96 16.6955 267.212 16.3408 266.727 15.8419C266.242 15.3384 266.001 14.7022 266.006 13.9332C266.001 13.2833 266.178 12.7203 266.535 12.2443C266.896 11.7637 267.397 11.393 268.038 11.1321C268.683 10.8666 269.427 10.7339 270.269 10.7339C271.505 10.7339 272.478 10.9971 273.187 11.5234C273.901 12.0498 274.343 12.7615 274.512 13.6586ZM281.694 21.4167V7.35606H287.076C288.092 7.35606 288.937 7.51626 289.61 7.83665C290.287 8.15247 290.793 8.585 291.127 9.13424C291.466 9.68348 291.635 10.306 291.635 11.0017C291.635 11.5738 291.525 12.0635 291.305 12.4709C291.086 12.8737 290.79 13.2009 290.42 13.4527C290.049 13.7044 289.635 13.8852 289.177 13.995V14.1323C289.676 14.1598 290.154 14.3131 290.612 14.5923C291.074 14.867 291.452 15.256 291.745 15.7595C292.038 16.2629 292.184 16.8717 292.184 17.5857C292.184 18.3135 292.008 18.968 291.656 19.5492C291.303 20.126 290.772 20.5814 290.063 20.9155C289.353 21.2496 288.461 21.4167 287.385 21.4167H281.694ZM284.241 19.2884H286.98C287.905 19.2884 288.571 19.1121 288.978 18.7597C289.39 18.4027 289.596 17.945 289.596 17.3866C289.596 16.9701 289.493 16.5948 289.287 16.2607C289.081 15.922 288.788 15.6565 288.408 15.4643C288.028 15.2674 287.575 15.169 287.049 15.169H284.241V19.2884ZM284.241 13.3359H286.76C287.2 13.3359 287.596 13.2558 287.948 13.0956C288.301 12.9309 288.577 12.6997 288.779 12.4022C288.985 12.1001 289.088 11.7431 289.088 11.3312C289.088 10.7865 288.896 10.338 288.511 9.98556C288.131 9.63313 287.566 9.45692 286.815 9.45692H284.241V13.3359ZM298.959 21.6226C297.901 21.6226 296.988 21.4029 296.219 20.9635C295.455 20.5196 294.867 19.8925 294.455 19.0824C294.043 18.2677 293.837 17.3088 293.837 16.2057C293.837 15.121 294.043 14.169 294.455 13.3497C294.871 12.5258 295.453 11.885 296.199 11.4273C296.945 10.965 297.821 10.7339 298.828 10.7339C299.478 10.7339 300.092 10.8392 300.668 11.0497C301.25 11.2557 301.762 11.5761 302.206 12.0109C302.655 12.4457 303.007 12.9995 303.263 13.6724C303.52 14.3406 303.648 15.137 303.648 16.0616V16.8236H295.004V15.1484H301.266C301.261 14.6724 301.158 14.2491 300.957 13.8783C300.755 13.503 300.474 13.2078 300.112 12.9927C299.755 12.7775 299.339 12.67 298.863 12.67C298.355 12.67 297.908 12.7936 297.524 13.0407C297.139 13.2833 296.84 13.6037 296.624 14.0019C296.414 14.3955 296.306 14.8281 296.302 15.2995V16.7618C296.302 17.3752 296.414 17.9015 296.638 18.3409C296.862 18.7757 297.176 19.1099 297.579 19.3433C297.982 19.5721 298.453 19.6866 298.993 19.6866C299.355 19.6866 299.682 19.6362 299.975 19.5355C300.268 19.4302 300.522 19.2769 300.737 19.0755C300.952 18.8741 301.115 18.6247 301.224 18.3272L303.545 18.5881C303.398 19.2014 303.119 19.7369 302.707 20.1946C302.3 20.6477 301.778 21.0002 301.142 21.2519C300.506 21.4991 299.778 21.6226 298.959 21.6226ZM310.337 25.5909C309.444 25.5909 308.677 25.4696 308.037 25.227C307.396 24.989 306.881 24.6686 306.492 24.2659C306.103 23.8631 305.833 23.4168 305.682 22.9271L307.92 22.3847C308.021 22.5907 308.167 22.7944 308.359 22.9957C308.552 23.2017 308.81 23.3711 309.135 23.5038C309.465 23.6411 309.879 23.7098 310.378 23.7098C311.083 23.7098 311.666 23.5381 312.129 23.1948C312.591 22.8561 312.822 22.2977 312.822 21.5197V19.5218H312.698C312.57 19.7781 312.383 20.0413 312.135 20.3113C311.893 20.5814 311.57 20.8079 311.167 20.991C310.769 21.1741 310.268 21.2656 309.664 21.2656C308.854 21.2656 308.119 21.0757 307.46 20.6958C306.805 20.3113 306.284 19.7392 305.895 18.9794C305.51 18.215 305.318 17.2584 305.318 16.1096C305.318 14.9516 305.51 13.9744 305.895 13.178C306.284 12.3771 306.808 11.7706 307.467 11.3587C308.126 10.9422 308.861 10.7339 309.671 10.7339C310.289 10.7339 310.797 10.8392 311.195 11.0497C311.598 11.2557 311.918 11.5051 312.156 11.7981C312.394 12.0864 312.575 12.3587 312.698 12.6151H312.836V10.8712H315.287V21.5883C315.287 22.49 315.072 23.236 314.641 23.8265C314.211 24.4169 313.623 24.8586 312.877 25.1515C312.131 25.4444 311.284 25.5909 310.337 25.5909ZM310.357 19.3158C310.884 19.3158 311.332 19.1877 311.703 18.9313C312.074 18.675 312.355 18.3066 312.547 17.826C312.74 17.3454 312.836 16.7687 312.836 16.0959C312.836 15.4322 312.74 14.8509 312.547 14.352C312.36 13.8531 312.08 13.4664 311.71 13.1918C311.344 12.9126 310.893 12.773 310.357 12.773C309.803 12.773 309.341 12.9171 308.97 13.2055C308.6 13.4938 308.32 13.8898 308.133 14.3932C307.945 14.8921 307.851 15.4597 307.851 16.0959C307.851 16.7412 307.945 17.3065 308.133 17.7917C308.325 18.2723 308.607 18.6476 308.977 18.9176C309.353 19.1831 309.813 19.3158 310.357 19.3158ZM317.834 21.4167V10.8712H320.319V21.4167H317.834ZM319.083 9.37453C318.69 9.37453 318.351 9.24409 318.067 8.9832C317.783 8.71773 317.642 8.39963 317.642 8.02889C317.642 7.65357 317.783 7.33547 318.067 7.07458C318.351 6.80911 318.69 6.67638 319.083 6.67638C319.482 6.67638 319.82 6.80911 320.099 7.07458C320.383 7.33547 320.525 7.65357 320.525 8.02889C320.525 8.39963 320.383 8.71773 320.099 8.9832C319.82 9.24409 319.482 9.37453 319.083 9.37453ZM325.36 15.2377V21.4167H322.875V10.8712H325.25V12.6631H325.374C325.616 12.0727 326.003 11.6035 326.534 11.2557C327.07 10.9078 327.731 10.7339 328.518 10.7339C329.246 10.7339 329.88 10.8895 330.42 11.2008C330.965 11.512 331.386 11.9628 331.683 12.5533C331.985 13.1437 332.134 13.86 332.13 14.7022V21.4167H329.644V15.0867C329.644 14.3818 329.461 13.8303 329.095 13.4321C328.733 13.0339 328.232 12.8348 327.591 12.8348C327.157 12.8348 326.77 12.9309 326.431 13.1231C326.097 13.3108 325.834 13.5831 325.642 13.9401C325.454 14.2971 325.36 14.7296 325.36 15.2377ZM342.991 13.6586L340.725 13.9058C340.661 13.6769 340.549 13.4618 340.389 13.2604C340.233 13.059 340.023 12.8965 339.757 12.773C339.492 12.6494 339.167 12.5876 338.782 12.5876C338.265 12.5876 337.83 12.6997 337.478 12.924C337.13 13.1483 336.958 13.4389 336.963 13.7959C336.958 14.1026 337.07 14.352 337.299 14.5443C337.533 14.7365 337.917 14.8944 338.453 15.018L340.251 15.4025C341.249 15.6176 341.991 15.9586 342.476 16.4254C342.966 16.8923 343.213 17.5033 343.217 18.2585C343.213 18.9222 343.018 19.5081 342.634 20.0161C342.254 20.5196 341.725 20.9132 341.048 21.197C340.37 21.4808 339.592 21.6226 338.714 21.6226C337.423 21.6226 336.384 21.3526 335.597 20.8125C334.809 20.2678 334.34 19.5103 334.189 18.54L336.613 18.3066C336.723 18.7826 336.956 19.1419 337.313 19.3845C337.67 19.6271 338.135 19.7483 338.707 19.7483C339.297 19.7483 339.771 19.6271 340.128 19.3845C340.489 19.1419 340.67 18.8421 340.67 18.4851C340.67 18.183 340.554 17.9336 340.32 17.7367C340.091 17.5399 339.734 17.3889 339.249 17.2836L337.45 16.906C336.439 16.6955 335.69 16.3408 335.205 15.8419C334.72 15.3384 334.48 14.7022 334.484 13.9332C334.48 13.2833 334.656 12.7203 335.013 12.2443C335.375 11.7637 335.876 11.393 336.517 11.1321C337.162 10.8666 337.906 10.7339 338.748 10.7339C339.984 10.7339 340.956 10.9971 341.666 11.5234C342.38 12.0498 342.821 12.7615 342.991 13.6586Z" fill="#161616"/>
<rect width="187.292" height="29" rx="14.5" fill="url(#paint0_linear_273_925)"/>
<path d="M16.4764 22.2083L12.6317 8.14772H14.3619L17.3003 19.5994H17.4376L20.431 8.14772H22.3533L25.3467 19.5994H25.484L28.4225 8.14772H30.1526L26.3079 22.2083H24.5503L21.4471 11.0038H21.3372L18.234 22.2083H16.4764ZM33.6746 15.8646V22.2083H32.0543V8.14772H33.6746V13.3106H33.8119C34.0591 12.7659 34.4298 12.3334 34.9241 12.013C35.423 11.688 36.0867 11.5256 36.9151 11.5256C37.6337 11.5256 38.2631 11.6697 38.8031 11.9581C39.3432 12.2419 39.762 12.679 40.0595 13.2694C40.3616 13.8553 40.5127 14.6013 40.5127 15.5076V22.2083H38.8924V15.6174C38.8924 14.7798 38.675 14.1322 38.2402 13.6745C37.8099 13.2122 37.2126 12.9811 36.4483 12.9811C35.9173 12.9811 35.4413 13.0932 35.0202 13.3175C34.6037 13.5417 34.2742 13.869 34.0316 14.2992C33.7936 14.7295 33.6746 15.2513 33.6746 15.8646ZM47.8983 22.428C46.8822 22.428 46.0057 22.2038 45.2688 21.7552C44.5364 21.3021 43.9712 20.6704 43.573 19.8603C43.1793 19.0456 42.9825 18.0982 42.9825 17.018C42.9825 15.9378 43.1793 14.9858 43.573 14.1619C43.9712 13.3335 44.525 12.6881 45.2344 12.2258C45.9484 11.759 46.7815 11.5256 47.7335 11.5256C48.2827 11.5256 48.8251 11.6171 49.3606 11.8002C49.8961 11.9833 50.3836 12.2808 50.823 12.6927C51.2624 13.1001 51.6125 13.6401 51.8734 14.313C52.1343 14.9858 52.2647 15.8142 52.2647 16.7983V17.4848H44.1359V16.0843H50.617C50.617 15.4893 50.498 14.9583 50.26 14.4915C50.0266 14.0246 49.6924 13.6562 49.2576 13.3861C48.8274 13.1161 48.3193 12.9811 47.7335 12.9811C47.0881 12.9811 46.5297 13.1413 46.0583 13.4616C45.5914 13.7775 45.2321 14.1894 44.9804 14.6974C44.7287 15.2055 44.6028 15.7502 44.6028 16.3314V17.2651C44.6028 18.0615 44.7401 18.7367 45.0147 19.2905C45.2939 19.8397 45.6807 20.2585 46.175 20.5469C46.6693 20.8306 47.2437 20.9725 47.8983 20.9725C48.3239 20.9725 48.7084 20.913 49.0517 20.794C49.3995 20.6704 49.6993 20.4874 49.951 20.2448C50.2028 19.9976 50.3973 19.691 50.5346 19.3248L52.1 19.7642C51.9352 20.2951 51.6583 20.762 51.2692 21.1648C50.8802 21.563 50.3996 21.8742 49.8275 22.0985C49.2553 22.3182 48.6123 22.428 47.8983 22.428ZM54.7295 22.2083V11.6629H56.2948V13.2557H56.4046C56.5969 12.7339 56.9447 12.3105 57.4482 11.9856C57.9517 11.6606 58.5192 11.4981 59.1509 11.4981C59.2699 11.4981 59.4186 11.5004 59.5971 11.505C59.7756 11.5095 59.9106 11.5164 60.0022 11.5256V13.1733C59.9473 13.1596 59.8214 13.139 59.6246 13.1115C59.4323 13.0795 59.2287 13.0634 59.0135 13.0634C58.5009 13.0634 58.0432 13.171 57.6404 13.3861C57.2422 13.5967 56.9264 13.8896 56.693 14.2649C56.4641 14.6356 56.3497 15.059 56.3497 15.535V22.2083H54.7295ZM66.0233 22.428C65.0072 22.428 64.1307 22.2038 63.3938 21.7552C62.6614 21.3021 62.0962 20.6704 61.698 19.8603C61.3043 19.0456 61.1075 18.0982 61.1075 17.018C61.1075 15.9378 61.3043 14.9858 61.698 14.1619C62.0962 13.3335 62.65 12.6881 63.3594 12.2258C64.0734 11.759 64.9065 11.5256 65.8585 11.5256C66.4077 11.5256 66.9501 11.6171 67.4856 11.8002C68.0211 11.9833 68.5086 12.2808 68.948 12.6927C69.3874 13.1001 69.7375 13.6401 69.9984 14.313C70.2593 14.9858 70.3897 15.8142 70.3897 16.7983V17.4848H62.2609V16.0843H68.742C68.742 15.4893 68.623 14.9583 68.385 14.4915C68.1516 14.0246 67.8174 13.6562 67.3826 13.3861C66.9524 13.1161 66.4443 12.9811 65.8585 12.9811C65.2131 12.9811 64.6547 13.1413 64.1833 13.4616C63.7164 13.7775 63.3571 14.1894 63.1054 14.6974C62.8537 15.2055 62.7278 15.7502 62.7278 16.3314V17.2651C62.7278 18.0615 62.8651 18.7367 63.1397 19.2905C63.4189 19.8397 63.8057 20.2585 64.3 20.5469C64.7943 20.8306 65.3687 20.9725 66.0233 20.9725C66.4489 20.9725 66.8334 20.913 67.1767 20.794C67.5245 20.6704 67.8243 20.4874 68.076 20.2448C68.3278 19.9976 68.5223 19.691 68.6596 19.3248L70.225 19.7642C70.0602 20.2951 69.7833 20.762 69.3942 21.1648C69.0052 21.563 68.5246 21.8742 67.9525 22.0985C67.3803 22.3182 66.7373 22.428 66.0233 22.428Z" fill="white"/>
<path d="M83.5551 14.7998C83.5551 14.7998 83.5022 14.7998 83.4757 14.7998C83.4493 14.7998 83.436 14.7998 83.4228 14.7998C83.3566 14.8659 83.2508 14.9056 83.0787 14.9321C82.9067 14.9586 82.8273 14.9983 82.8273 15.0645C82.9199 15.0645 83.0523 15.0645 83.2111 15.0645C83.3699 15.0645 83.4493 15.038 83.436 15.0115C83.5551 15.0248 83.5816 15.0512 83.5154 15.0645C83.4493 15.0777 83.3434 15.1042 83.1978 15.1174C83.0522 15.1306 82.9199 15.1439 82.7611 15.1703C82.6155 15.1836 82.5361 15.1968 82.5096 15.1968C82.5758 15.1836 82.6023 15.1703 82.6155 15.1439C82.6155 15.1306 82.5891 15.1174 82.5096 15.1174C82.4832 15.1174 82.4567 15.1174 82.4435 15.0909L82.4964 15.1439C82.4964 15.1439 82.4435 15.1703 82.4038 15.1174C82.3376 15.1174 82.3111 15.1306 82.3244 15.1703C82.3376 15.21 82.3641 15.2233 82.4038 15.2365C82.3376 15.2365 82.2979 15.2497 82.2847 15.2894L82.3773 15.7791C82.3773 15.7791 82.2847 15.832 82.2714 15.9114C82.2582 15.9908 82.2714 16.057 82.2714 16.1497C82.2714 16.2423 82.2714 16.3217 82.2714 16.4011C82.2714 16.4805 82.2317 16.5334 82.192 16.5467C82.192 16.6923 82.192 16.7584 82.2185 16.7849C82.245 16.8114 82.245 16.7849 82.2714 16.7452C82.2979 16.7055 82.2979 16.6658 82.3111 16.6393C82.3244 16.6129 82.3111 16.6129 82.3111 16.6658C82.3244 16.7717 82.3244 16.904 82.3111 17.0496C82.3111 17.1952 82.2979 17.354 82.2714 17.4995C82.245 17.6451 82.245 17.8039 82.2317 17.9363C82.2185 18.0686 82.2317 18.1877 82.2714 18.2671C82.245 18.5053 82.2317 18.7303 82.2317 18.9685C82.2317 19.2067 82.2317 19.4053 82.192 19.6038L82.2847 19.6302L82.2317 19.9611C82.2185 20.067 82.2053 20.1728 82.2053 20.2919C82.2317 20.2919 82.2582 20.2655 82.2582 20.2258C82.2317 20.3978 82.2053 20.5699 82.2053 20.7419C82.2053 20.9139 82.1656 21.086 82.1259 21.258C82.0465 21.5624 81.8612 21.8006 81.5568 21.9594C81.2524 22.1182 80.948 22.1182 80.6569 21.9594C80.723 22.0785 80.8289 22.158 80.9877 22.1844C81.1465 22.2109 81.2789 22.1977 81.4112 22.1844C81.2259 22.2506 81.0407 22.2638 80.8686 22.2241C80.6966 22.1844 80.5378 22.105 80.3922 21.9859C80.2466 21.8668 80.1407 21.7212 80.0481 21.5492C79.9555 21.3771 79.929 21.2051 79.9422 21.0198V20.9669C79.9422 20.9669 79.9422 20.9139 79.9687 20.9139C80.0216 20.7154 80.0481 20.5037 80.0613 20.2787C80.0746 20.0537 80.0878 19.8552 80.0878 19.6567L80.0349 19.7229L80.101 19.2332C80.101 19.2332 80.0746 19.2994 80.0481 19.2861C80.0216 19.2729 80.0216 19.2729 79.9952 19.2861C79.9819 18.8891 79.9819 18.4656 79.9952 18.0157C79.9952 17.5789 80.0481 17.2349 80.1275 16.9966C80.1143 16.9966 80.101 16.9834 80.0746 16.9437C80.0613 16.9172 80.0481 16.8908 80.0216 16.8643C79.9952 16.8378 79.9952 16.8378 79.9687 16.8643C79.9422 16.8908 79.9422 16.9569 79.9158 17.0628C79.9422 16.7717 79.9687 16.4673 79.9687 16.1629C79.9687 15.8585 79.9687 15.5409 79.9687 15.2233C79.9158 15.2365 79.8496 15.2497 79.7305 15.2497C79.704 15.2365 79.6378 15.2233 79.5452 15.2233L79.5187 15.2497H79.6643C79.4526 15.2762 79.2408 15.2894 79.0423 15.2497C78.8438 15.2233 78.6717 15.1042 78.5262 14.8924C78.4335 14.8659 78.3541 14.7998 78.2747 14.6939C78.1953 14.588 78.1556 14.4822 78.1292 14.3498C78.1556 14.3366 78.1689 14.2969 78.1689 14.2175C78.1689 14.1381 78.1689 14.0851 78.1689 14.0454C78.1953 13.8337 78.288 13.6352 78.4468 13.4764C78.6056 13.3176 78.7909 13.2117 79.0026 13.1587L79.1217 13.6484V13.1587C79.2011 13.1455 79.2805 13.1323 79.3599 13.1058C79.4393 13.0926 79.5187 13.1058 79.5981 13.1323C79.6114 13.1058 79.5981 13.0926 79.5584 13.0926C79.5187 13.0926 79.5187 13.0926 79.5584 13.0529C79.6114 13.0529 79.6511 13.0529 79.704 13.0529C79.757 13.0529 79.8099 13.0529 79.8628 13.0529C79.8893 12.5235 79.9025 11.9809 79.8628 11.4251C79.8231 10.8692 79.8099 10.3266 79.7569 9.82374C79.8231 9.75757 79.8628 9.63847 79.9025 9.46642C79.929 9.29438 79.9555 9.09587 79.9555 8.88412V8.26212C79.9555 8.06361 79.9687 7.89156 80.0084 7.77245C79.9819 7.71952 79.9555 7.73275 79.9422 7.77245C79.929 7.81216 79.9158 7.9048 79.9025 7.99744C79.8893 8.09007 79.8893 8.18271 79.8761 8.26212C79.8761 8.35476 79.8628 8.39446 79.8364 8.39446C79.8496 8.28859 79.8496 8.22242 79.8364 8.19595C79.8231 8.16948 79.7967 8.14301 79.7702 8.11654C79.7437 8.0239 79.7305 7.9445 79.7305 7.86509C79.7305 7.78569 79.7437 7.67982 79.7702 7.53424C79.757 7.56071 79.7437 7.58718 79.7305 7.58718C79.7172 7.58718 79.7305 7.64011 79.7305 7.71952C79.7305 7.60041 79.7305 7.53424 79.7569 7.52101C79.7834 7.50777 79.7967 7.52101 79.8231 7.52101C79.8761 7.49454 79.8893 7.42837 79.8761 7.32249C79.8628 7.21662 79.8761 7.13722 79.8761 7.08428C79.8496 7.05781 79.8231 7.03134 79.8099 7.03134C79.8099 7.01811 79.8231 6.97841 79.8628 6.91224C80.1275 6.55491 80.4584 6.30347 80.8686 6.17113C81.2789 6.03878 81.6759 5.89321 82.0862 5.7741C82.1126 5.7741 82.245 5.74763 82.4832 5.68146C82.7214 5.61529 82.9596 5.56236 83.1978 5.49618C83.436 5.43001 83.6346 5.39031 83.7669 5.35061C83.9125 5.32414 83.886 5.35061 83.714 5.44325C83.9919 5.37708 84.283 5.33738 84.5874 5.32414C84.8918 5.31091 85.1829 5.24474 85.4609 5.13886H85.302C85.5535 5.07269 85.752 5.03299 85.9108 5.00652C86.0696 4.98005 86.2152 4.96682 86.3475 4.96682C86.4799 4.96682 86.6255 4.96682 86.7843 4.96682C86.9431 4.96682 87.1681 4.96682 87.446 4.92712C87.393 4.94035 87.3269 4.95359 87.2342 4.95359C87.1416 4.95359 87.0489 4.95359 86.9563 4.98005C86.8637 5.00652 86.7843 5.00652 86.7049 5.03299C86.6255 5.05946 86.5725 5.08593 86.5461 5.12563C86.6255 5.1521 86.771 5.1521 86.9828 5.09916C87.1945 5.04622 87.3533 5.01976 87.4195 4.98005L87.393 5.04622C87.5386 5.01976 87.6842 4.99329 87.8298 4.98005C87.9886 4.96682 88.1342 4.95359 88.2665 4.92712C88.4253 4.92712 88.6106 4.91388 88.8488 4.87418C89.087 4.83448 89.312 4.82124 89.5502 4.82124C89.7884 4.82124 89.9869 4.87418 90.1854 4.95359C90.3707 5.03299 90.4766 5.1918 90.5163 5.41678V5.36384C90.5428 5.50942 90.5163 5.62853 90.4501 5.74763C90.3707 5.86674 90.2648 5.95938 90.1457 6.01232C90.2516 5.98585 90.3443 5.93291 90.4237 5.85351C90.3972 5.90644 90.3443 5.93291 90.2913 5.97261C90.2384 5.99908 90.1854 6.02555 90.1325 6.05202C90.0796 6.07849 90.0531 6.09172 90.0399 6.10495C90.0266 6.11819 90.0399 6.13142 90.0663 6.13142C90.1722 6.15789 90.1987 6.18436 90.1457 6.21083C90.0928 6.2373 90.0266 6.26376 89.9737 6.29023C89.8546 6.29023 89.7619 6.29023 89.6958 6.26376C89.4311 6.21083 89.1796 6.26376 88.9414 6.38287C88.7032 6.50198 88.4518 6.59462 88.2136 6.63432C88.0018 6.66079 87.8827 6.67402 87.8827 6.63432C87.8827 6.59462 87.9092 6.58138 87.9753 6.55491C88.0415 6.52845 88.0812 6.50198 88.1209 6.48874C88.1606 6.47551 88.1209 6.46228 87.9753 6.46228C87.8695 6.47551 87.7901 6.48874 87.7504 6.50198C87.7107 6.50198 87.6842 6.51521 87.671 6.54168C87.6577 6.55492 87.6313 6.56815 87.618 6.59462C87.5915 6.60785 87.5518 6.62109 87.4857 6.64755L87.2475 6.52845C87.1284 6.54168 87.049 6.55491 87.0357 6.58138C87.0225 6.60785 87.0225 6.60785 87.0357 6.63432C87.049 6.66079 87.049 6.66079 87.0622 6.67402C87.0754 6.68726 87.0357 6.67402 86.9563 6.67402C86.8637 6.70049 86.8107 6.72696 86.8107 6.72696C86.8107 6.72696 86.8372 6.72696 86.8769 6.72696C86.9166 6.72696 86.9828 6.72696 87.0489 6.72696C87.1151 6.72696 87.1681 6.74019 87.1945 6.76666C87.1416 6.76666 87.0357 6.76666 86.8637 6.76666C86.6916 6.76666 86.5593 6.80636 86.4799 6.84607C86.4799 6.8593 86.5064 6.87253 86.5593 6.84607C86.6122 6.84607 86.6652 6.84607 86.7049 6.84607C86.7446 6.84607 86.7843 6.84607 86.7843 6.84607C86.7843 6.84607 86.7578 6.87253 86.6784 6.88577C86.4005 6.91224 86.149 6.95194 85.9505 6.99164C85.752 7.03134 85.5403 7.07105 85.3285 7.12398C85.13 7.17692 84.9183 7.21662 84.6933 7.26956C84.4683 7.32249 84.2301 7.37543 83.9522 7.4416L84.0713 7.49454C83.9919 7.50777 83.9257 7.50777 83.886 7.49454C83.8463 7.4813 83.7801 7.49454 83.7272 7.53424L83.7934 7.58718C83.714 7.60041 83.6081 7.62688 83.4625 7.64011C83.3169 7.65335 83.1714 7.69305 82.9993 7.71952C82.8273 7.74599 82.6685 7.78569 82.4964 7.81216C82.3376 7.83862 82.192 7.87833 82.0862 7.93126C82.1126 7.9445 82.1391 7.95773 82.1523 7.95773C82.1656 7.95773 82.1788 7.95773 82.2053 7.9842C82.1788 7.97097 82.1126 7.95773 82.02 7.95773L82.1656 8.0239C82.1656 8.0239 82.0862 7.99744 82.0862 8.0239C82.0862 8.05037 82.0862 8.10331 82.0862 8.12978C82.0994 8.28859 82.1126 8.4474 82.1259 8.61944C82.1391 8.79148 82.1259 8.96353 82.1259 9.13557H82.192L82.1656 9.53259L82.2185 9.38702C82.2185 9.58553 82.2053 9.79728 82.1656 10.0223C82.1259 10.2472 82.1391 10.4722 82.1656 10.7104C82.1523 10.5516 82.1656 10.459 82.2185 10.406C82.2714 10.3531 82.2979 10.3399 82.3376 10.3531L82.2185 11.5442C82.2185 11.5442 82.245 11.5706 82.2714 11.6104C82.2979 11.6501 82.2979 11.703 82.3111 11.7559C82.3244 11.8089 82.3244 11.8353 82.3376 11.8486C82.3376 11.8618 82.3508 11.8486 82.3773 11.7956L82.3111 12.1927L82.3773 12.1397C82.3773 12.1397 82.3773 12.2324 82.4038 12.2853C82.3905 12.2985 82.3905 12.3118 82.4038 12.3382C82.417 12.3647 82.4302 12.3515 82.4567 12.3382C82.9993 12.3118 83.5419 12.2721 84.0713 12.2456C84.6006 12.2191 85.1432 12.1265 85.6858 11.9677L85.6329 11.9412C85.8049 11.9412 85.9902 11.9412 86.1887 11.9412C86.3873 11.9412 86.5725 11.9677 86.7446 11.9809C86.8372 11.9544 86.9166 11.9147 86.9695 11.8618C87.0225 11.8089 87.1416 11.7692 87.3004 11.7162C87.2475 11.7427 87.2739 11.7692 87.3533 11.7692C87.4327 11.7692 87.5254 11.7692 87.6313 11.7692C87.7371 11.7692 87.843 11.7692 87.9621 11.7692C88.0812 11.7692 88.1341 11.7692 88.1474 11.7956C88.2665 11.7692 88.293 11.7427 88.2268 11.7427C88.1606 11.7427 88.0944 11.7162 88.0547 11.6898C88.2665 11.6368 88.4915 11.6104 88.7165 11.5971C88.9414 11.5839 89.1664 11.5971 89.4046 11.6236C89.709 11.6898 90.0002 11.8486 90.2384 12.1C90.4898 12.3515 90.6089 12.6426 90.5825 12.9735C90.5957 13.2381 90.5428 13.4896 90.4237 13.741C90.3045 13.9925 90.106 14.1645 89.8414 14.2704C89.7222 14.3366 89.5899 14.3763 89.4576 14.4028C89.3252 14.4292 89.1929 14.4425 89.0738 14.4557C89.3517 14.4292 89.6296 14.3366 89.8943 14.191C90.159 14.0454 90.331 13.8337 90.4104 13.5558C90.5295 13.1587 90.4898 12.775 90.2913 12.4309C90.0928 12.0868 89.7752 11.8883 89.3385 11.8618C89.7355 11.9412 90.0399 12.1265 90.2251 12.4309C90.4104 12.7353 90.4501 13.0926 90.3443 13.4896C90.2648 13.7807 90.0796 13.9925 89.8017 14.1248C89.5237 14.2572 89.2326 14.3101 88.9547 14.2704C89.1267 14.3233 89.3385 14.3101 89.5767 14.2439C89.4708 14.3233 89.3252 14.3631 89.1532 14.3763C88.9811 14.3763 88.8091 14.3763 88.637 14.3763C88.465 14.3763 88.3062 14.3763 88.1474 14.4028C87.9886 14.416 87.8695 14.4557 87.8033 14.5219C87.5121 14.5219 87.221 14.5086 86.9431 14.4689C86.6652 14.4292 86.3475 14.4425 85.9902 14.5086L86.3211 14.6542C86.2417 14.6674 86.1358 14.6807 86.0035 14.7071C85.8711 14.7336 85.7652 14.7336 85.6858 14.7601L85.6329 14.641C85.4609 14.641 85.355 14.6674 85.302 14.7071C85.0638 14.6807 84.7991 14.6807 84.508 14.7336C84.2168 14.7865 83.9125 14.7865 83.5948 14.7601L83.5419 14.8262L83.5551 14.7998ZM78.7644 14.5616C78.7644 14.5616 78.8173 14.6145 78.8306 14.6145C78.8438 14.6145 78.857 14.6277 78.8835 14.6542C78.685 14.4822 78.6188 14.2704 78.6982 14.0057C78.6188 14.0851 78.5923 14.1778 78.6188 14.2836C78.6453 14.3895 78.6982 14.4822 78.7644 14.5616ZM79.4923 13.5425C79.4923 13.5425 79.4393 13.569 79.4261 13.569C79.4129 13.569 79.3996 13.569 79.3732 13.5955C79.4261 13.5955 79.4526 13.5822 79.4923 13.5425C79.5849 13.5161 79.7172 13.4764 79.8761 13.4499C80.0349 13.4234 80.1804 13.3837 80.3128 13.3573C80.2995 13.2779 80.2863 13.1852 80.2863 13.0661C80.2863 12.947 80.2863 12.8544 80.2863 12.8014C80.2863 12.7353 80.2598 12.722 80.2334 12.7485C80.2069 12.775 80.1672 12.8808 80.101 13.0793C80.1937 13.1058 80.2466 13.1455 80.2598 13.172C80.2598 13.1984 80.2598 13.2381 80.2598 13.2779C80.2598 13.3176 80.2334 13.3308 80.154 13.3176H79.8099C79.6908 13.3176 79.5981 13.3308 79.5187 13.3705C79.5717 13.3837 79.6246 13.3837 79.7172 13.3705C79.8099 13.3573 79.8628 13.3705 79.9158 13.3705C79.8496 13.397 79.7834 13.4234 79.6908 13.4367C79.5981 13.4499 79.5187 13.4631 79.4526 13.4631C79.3864 13.4367 79.3467 13.4234 79.307 13.4367C79.307 13.4499 79.3467 13.4631 79.4129 13.4631C79.479 13.4631 79.5055 13.4896 79.4658 13.5293L79.4923 13.5425ZM80.0746 16.0835C80.0746 16.0835 80.0216 16.1232 80.0216 16.2952L80.0746 16.0835C80.0746 16.0835 80.1275 16.1497 80.1275 16.1894C80.1275 16.2291 80.1275 16.1364 80.0878 15.8982L80.0613 16.0835H80.0746ZM80.1937 21.2977C80.2466 21.4168 80.3128 21.5095 80.4054 21.5757C80.3393 21.4698 80.2995 21.3639 80.2598 21.2448C80.2334 21.1389 80.1937 21.0331 80.1672 20.9139V20.8478C80.1672 20.8478 80.1143 20.7684 80.1143 20.7154C80.1143 20.6625 80.1143 20.6096 80.0878 20.5699V20.9272C80.0878 21.0463 80.1143 21.1654 80.1804 21.2845L80.1937 21.2977ZM80.6833 6.52845C80.8157 6.44904 81.0407 6.36964 81.3318 6.277C81.623 6.18436 81.9273 6.10495 82.2317 6.02555C81.8082 6.10495 81.4244 6.19759 81.0671 6.30347C80.8289 6.38287 80.6304 6.48874 80.4451 6.63432C80.2598 6.7799 80.1672 6.99164 80.1672 7.25632V7.58718C80.2466 7.41513 80.2731 7.29603 80.2731 7.22986C80.2731 7.16369 80.2863 7.05781 80.3525 6.9387C80.2995 6.95194 80.2731 6.99164 80.2598 7.03134C80.2863 6.7799 80.4319 6.62109 80.6966 6.54168L80.6833 6.52845ZM80.2201 10.0487L80.2466 10.1414L80.1937 9.81051L80.2201 10.0487ZM80.2731 17.0628C80.2731 17.0628 80.2731 17.076 80.2731 17.0099C80.2731 16.9437 80.2731 16.8643 80.2731 16.7584C80.2731 16.6526 80.2598 16.5599 80.2466 16.454C80.2466 16.3482 80.2466 16.2688 80.2466 16.1894C80.2466 16.2423 80.2466 16.2952 80.2466 16.3879C80.2466 16.4673 80.2466 16.5599 80.2466 16.6526C80.2466 16.7452 80.2598 16.8246 80.2731 16.904C80.2731 16.9834 80.2863 17.0231 80.3128 17.0496L80.2731 17.0628ZM80.2466 20.861C80.326 20.689 80.3922 20.5434 80.4187 20.4243C80.4584 20.3052 80.4848 20.1464 80.5245 19.9479L80.4054 19.8023C80.4187 19.9082 80.4451 19.9743 80.4584 20.0008C80.4716 20.0273 80.4716 20.1199 80.4584 20.2919C80.3525 20.2655 80.2996 20.3184 80.2731 20.4772C80.2598 20.636 80.2466 20.7551 80.2466 20.8478V20.861ZM80.3657 11.3854C80.3393 11.6236 80.3128 11.8486 80.2995 12.0603C80.2863 12.2721 80.3128 12.4573 80.3922 12.5897C80.4187 12.5367 80.4319 12.4441 80.4319 12.3118C80.4319 12.1794 80.4319 12.0735 80.4319 12.0074C80.4187 11.9015 80.4054 11.7956 80.4054 11.6898C80.4054 11.5839 80.4054 11.478 80.379 11.3721L80.3657 11.3854ZM80.4848 17.5128C80.4848 17.5128 80.5378 17.526 80.551 17.4731C80.5642 17.4201 80.5775 17.3672 80.5775 17.301C80.5642 17.3275 80.551 17.3275 80.5245 17.301C80.4981 17.2746 80.4981 17.3407 80.4716 17.5128H80.4848ZM81.1862 6.07849C81.1862 6.07849 81.1068 6.18436 81.0407 6.2373C81.1068 6.21083 81.1598 6.18436 81.2259 6.18436C81.2921 6.18436 81.345 6.15789 81.4112 6.13142L81.173 6.07849H81.1862ZM81.5568 12.4309C81.5568 12.4309 81.5568 12.3515 81.5833 12.2853C81.6097 12.2191 81.6097 12.1927 81.6362 12.2324C81.6097 12.153 81.5833 12.0868 81.5833 12.0074C81.5833 11.928 81.57 11.9015 81.5303 11.875L81.5568 12.4309ZM82.3508 18.2804C82.3508 18.2804 82.2847 18.2671 82.2847 18.2274V18.1612L82.3508 18.2804ZM82.2979 19.8684C82.3111 19.9611 82.2979 20.067 82.2714 20.1728C82.2847 20.0934 82.2979 20.0008 82.2979 19.8684ZM82.6288 5.68146C82.6288 5.68146 82.7082 5.7344 82.8405 5.72117C82.9596 5.6947 83.0655 5.6947 83.1449 5.72117C83.1184 5.74763 82.9993 5.76087 82.814 5.74763C82.6155 5.7344 82.4567 5.76087 82.3111 5.84027C82.4567 5.86674 82.6685 5.86674 82.9728 5.8138C83.2772 5.76087 83.5551 5.72116 83.7934 5.66823C83.8463 5.66823 83.9257 5.65499 84.0448 5.61529C83.9786 5.60206 83.8992 5.58882 83.8066 5.57559C83.714 5.57559 83.5816 5.57559 83.4096 5.61529L83.5684 5.52265C83.4096 5.54912 83.264 5.56236 83.1317 5.56236C82.9861 5.56236 82.814 5.60206 82.6155 5.6947L82.6288 5.68146ZM82.3244 7.67982C82.417 7.66658 82.5096 7.64011 82.6155 7.61365C82.7214 7.58718 82.7743 7.54747 82.814 7.52101C82.7214 7.54747 82.642 7.57394 82.5891 7.57394C82.5361 7.57394 82.4435 7.61365 82.3244 7.69305V7.67982ZM82.7611 14.4028C82.7611 14.4028 82.814 14.3366 82.814 14.2836C82.7346 14.2969 82.6552 14.3101 82.5758 14.3233C82.4964 14.3233 82.417 14.3498 82.3376 14.363C82.4567 14.363 82.6023 14.3763 82.7611 14.416V14.4028ZM83.1052 7.62688C83.1052 7.62688 83.1978 7.62688 83.2508 7.62688C83.3037 7.62688 83.3699 7.60041 83.4625 7.57394C83.3699 7.57394 83.3037 7.57394 83.2508 7.57394C83.1978 7.57394 83.1581 7.56071 83.1184 7.54747C83.0787 7.53424 83.039 7.54747 82.9728 7.54747C82.9067 7.54747 82.8405 7.58718 82.7479 7.62688C82.8405 7.61365 82.9067 7.61365 82.9596 7.62688C83.0125 7.64011 83.0522 7.64011 83.1052 7.66658V7.62688ZM83.5684 14.7998C83.5684 14.7998 83.6213 14.8262 83.6213 14.8395C83.6213 14.8527 83.5948 14.8527 83.5154 14.8792L83.5684 14.813V14.7998ZM84.5742 14.1513C84.5742 14.1513 84.5874 14.2175 84.6271 14.2175C84.6668 14.2175 84.733 14.2175 84.8389 14.191C84.7462 14.1778 84.6668 14.1513 84.6006 14.1248C84.5345 14.0984 84.4154 14.1116 84.2301 14.1778C84.283 14.191 84.336 14.1778 84.4021 14.1778C84.4683 14.1778 84.5345 14.1513 84.5742 14.1778V14.1513ZM85.302 12.3647C85.302 12.3647 85.355 12.3382 85.3285 12.3382H85.1829C85.1168 12.3382 85.0374 12.3382 84.9447 12.3382C84.8521 12.3382 84.7859 12.3515 84.7197 12.3779C84.7462 12.4044 84.8389 12.4176 84.9712 12.4044C85.1035 12.3912 85.1432 12.4044 85.0638 12.4573L84.8786 12.5103C84.958 12.497 85.0109 12.497 85.0374 12.5103C85.0638 12.5235 85.1035 12.5235 85.13 12.55C85.1565 12.5632 85.1962 12.5764 85.2491 12.5764C85.302 12.5764 85.3682 12.5632 85.4873 12.5235L85.2359 12.5764C85.3153 12.5632 85.3417 12.55 85.302 12.5235C85.2756 12.5103 85.2359 12.497 85.1962 12.4706C85.1565 12.4573 85.13 12.4441 85.13 12.4309C85.13 12.4309 85.1829 12.4044 85.302 12.3779V12.3647ZM85.4609 5.21827C85.3418 5.24474 85.2226 5.2712 85.13 5.29767C85.0241 5.32414 84.9447 5.33738 84.8786 5.33738C84.8786 5.39031 84.9315 5.40355 85.0241 5.40355C85.2226 5.37708 85.4344 5.33738 85.6329 5.29767C85.8314 5.25797 86.0432 5.21827 86.2549 5.1918C86.1358 5.20503 86.0035 5.21827 85.8843 5.2315C85.7652 5.24474 85.6329 5.24474 85.5138 5.2712L85.7917 5.21827C85.8843 5.20503 85.9902 5.17857 86.0961 5.1521C86.0167 5.12563 85.924 5.1124 85.8182 5.1521C85.7123 5.1918 85.5932 5.20503 85.4741 5.2315L85.4609 5.21827ZM85.2226 14.6542C85.2226 14.6542 85.2888 14.6542 85.3153 14.6542C85.3417 14.6542 85.3815 14.6542 85.4079 14.6542L85.6858 14.6277C85.6858 14.6277 85.6197 14.5616 85.58 14.5748L85.4079 14.641L85.2226 14.6674V14.6542ZM85.5535 14.7998C85.3682 14.7998 85.2888 14.7733 85.3153 14.7071C85.4079 14.7336 85.4873 14.7733 85.5535 14.7998ZM85.5006 12.2324C85.6197 12.2853 85.7388 12.2853 85.8314 12.2324C85.9241 12.1794 86.0299 12.1794 86.1623 12.1927C86.0696 12.1662 85.977 12.1397 85.8711 12.1265C85.7652 12.1132 85.6461 12.1397 85.5138 12.2191L85.5006 12.2324ZM86.1093 13.9793C86.1093 13.9793 86.149 13.8866 86.0564 13.8999C85.9638 13.9131 85.8711 13.9131 85.8182 13.9396C85.9637 13.9131 86.0564 13.9263 86.1226 13.9925L86.1093 13.9793ZM86.9034 14.4425C87.0092 14.416 87.0225 14.3895 86.9431 14.3763C86.8637 14.3631 86.7975 14.3366 86.771 14.3101H87.0489C87.0489 14.3101 86.9828 14.2439 86.9431 14.2572C86.9034 14.2704 86.8504 14.2704 86.7975 14.2969C86.7446 14.3233 86.6652 14.3366 86.5858 14.3498C86.5064 14.3763 86.4137 14.3763 86.3078 14.3498C86.3211 14.4028 86.4137 14.416 86.5593 14.4028C86.7181 14.4028 86.8372 14.4028 86.9034 14.4425ZM86.8372 5.08593C86.6784 5.1124 86.5461 5.13886 86.4402 5.13886H86.5593C86.5593 5.13886 86.7181 5.12563 86.8372 5.08593ZM88.3062 6.09172C88.3062 6.09172 88.1871 6.11819 88.1341 6.11819C88.0812 6.11819 88.0283 6.11819 87.9621 6.14466C87.9753 6.17113 88.015 6.18436 88.0812 6.18436C88.1474 6.18436 88.1871 6.18436 88.2268 6.18436C88.3194 6.17113 88.3459 6.14466 88.3194 6.11819L88.3062 6.09172ZM88.4253 4.83448C88.4253 4.83448 88.3062 4.83448 88.2665 4.83448C88.2268 4.83448 88.1739 4.83448 88.1209 4.83448L88.4518 4.78154L88.4253 4.84771V4.83448ZM88.7959 4.6492C88.6503 4.67567 88.5709 4.6889 88.5444 4.67567C88.5179 4.66243 88.4385 4.6492 88.3062 4.6492H88.7959ZM89.6693 12.2853C89.6693 12.2853 89.6164 12.2588 89.6164 12.2456C89.6164 12.2324 89.5899 12.2324 89.5634 12.2059C89.6693 12.2721 89.7619 12.3515 89.8414 12.4441C89.9208 12.5367 89.9737 12.6426 90.0002 12.775C90.0134 12.9338 90.0002 13.0793 90.0002 13.2249C89.9737 13.3705 89.9075 13.5028 89.8017 13.6352C89.8811 13.5822 89.9472 13.5161 89.9869 13.4234C90.0266 13.3308 90.0663 13.2381 90.0796 13.1455C90.0796 13.2117 90.0796 13.2514 90.0531 13.2911C90.0796 13.2646 90.1193 13.2117 90.1457 13.1455C90.0928 13.172 90.0663 13.1587 90.0663 13.0926C90.0663 13.0264 90.0531 12.947 90.0399 12.8544C90.0266 12.7617 90.0002 12.6558 89.9605 12.55C89.9208 12.4441 89.8149 12.3515 89.6825 12.2721L89.6693 12.2853Z" fill="white"/>
<path d="M103.539 20.0008C103.632 20.1067 103.711 20.2258 103.777 20.3317C103.844 20.4375 103.857 20.5699 103.817 20.7287V20.6758C103.817 20.6758 103.817 20.7419 103.791 20.7552C103.751 20.9801 103.632 21.1389 103.42 21.2316C103.552 21.1919 103.632 21.1522 103.672 21.086C103.619 21.1654 103.552 21.2184 103.473 21.2581C103.433 21.2978 103.394 21.311 103.367 21.3242C103.327 21.3242 103.341 21.3507 103.394 21.3639C103.499 21.4036 103.513 21.4433 103.42 21.5095C103.248 21.6021 103.063 21.6154 102.838 21.536C102.613 21.4566 102.428 21.3639 102.282 21.2581C102.15 21.1654 102.03 21.0728 101.898 20.9669C101.779 20.861 101.673 20.7419 101.581 20.5963C101.541 20.4905 101.514 20.3978 101.501 20.3317C101.488 20.2655 101.501 20.2787 101.581 20.3714C101.633 20.4111 101.686 20.4375 101.726 20.464C101.766 20.4905 101.766 20.4508 101.726 20.3449C101.647 20.1596 101.594 20.0802 101.567 20.0935C101.541 20.1067 101.488 20.067 101.408 19.9479C101.448 19.8949 101.488 19.8023 101.514 19.6964C101.475 19.5906 101.448 19.5244 101.435 19.5111C101.422 19.5111 101.395 19.5111 101.382 19.5111C101.369 19.5111 101.356 19.5244 101.342 19.5376C101.342 19.5376 101.329 19.5244 101.329 19.4714C101.276 19.392 101.236 19.3656 101.223 19.3656C101.21 19.3656 101.197 19.392 101.223 19.4317C101.223 19.4847 101.236 19.5376 101.25 19.6038C101.25 19.67 101.25 19.7229 101.236 19.7626C101.236 19.6832 101.21 19.5773 101.17 19.4185C101.117 19.2597 101.078 19.1538 101.011 19.1009C101.025 19.1935 101.038 19.2597 101.051 19.3126C101.051 19.3656 101.051 19.392 101.051 19.392C101.051 19.392 101.025 19.3656 101.011 19.2994C100.906 18.8494 100.773 18.4392 100.628 18.0686C100.588 18.0157 100.561 17.9628 100.535 17.9231C100.509 17.8834 100.482 17.8304 100.469 17.751C100.456 17.7907 100.442 17.8172 100.442 17.8304C100.442 17.8436 100.442 17.8701 100.416 17.8834C100.429 17.8039 100.442 17.7775 100.429 17.7907C100.429 17.7907 100.403 17.8304 100.389 17.8834V17.6716C100.389 17.5657 100.389 17.4863 100.363 17.4334C100.363 17.4334 100.31 17.5128 100.323 17.579C100.323 17.6319 100.337 17.6848 100.337 17.751C100.337 17.6584 100.323 17.5922 100.284 17.5525V17.8834C100.284 17.7378 100.284 17.6981 100.257 17.7775C100.244 17.8569 100.204 17.9098 100.178 17.9495L100.231 18.0289H100.178L100.231 18.0554C100.098 18.1877 99.9924 18.3068 99.8998 18.3995C99.8072 18.5054 99.7277 18.6245 99.6483 18.7833C99.7277 18.6509 99.7939 18.5848 99.8601 18.5848C99.9263 18.5848 99.9792 18.598 100.019 18.6377C99.7542 18.9156 99.4895 19.1935 99.2116 19.445C99.2248 19.445 99.2248 19.4582 99.2116 19.4979C99.1984 19.5376 99.1719 19.5773 99.1587 19.6303C99.1454 19.6832 99.1322 19.7097 99.1322 19.7361C99.1322 19.7626 99.1454 19.7626 99.1851 19.7229C99.0396 19.8288 98.9337 19.9214 98.8808 19.9743H98.9602C98.3646 20.7552 97.6235 21.3242 96.7368 21.6683C95.8501 22.0124 94.937 22.1712 93.9841 22.1315L94.0106 22.1844C93.5606 22.0521 93.1769 21.8271 92.8328 21.5095C92.7004 21.4301 92.5946 21.3904 92.5151 21.3904C92.4357 21.3904 92.3299 21.3242 92.1975 21.2051C92.2505 21.2184 92.2637 21.2051 92.2108 21.1389C92.1578 21.0728 92.1049 20.9934 92.0255 20.8875C91.9461 20.7816 91.8799 20.6758 91.8137 20.5831C91.7476 20.4772 91.7211 20.3978 91.7476 20.3449C91.6549 20.2523 91.6152 20.239 91.6285 20.3184C91.6285 20.3978 91.6417 20.464 91.6417 20.5169C91.3108 20.067 91.1256 19.5906 91.0859 19.0612C91.0462 18.5451 90.9932 18.0157 90.9138 17.4996C91.0065 17.8701 91.0859 18.1877 91.1388 18.4392C91.1917 18.6906 91.2844 18.995 91.4167 19.3523C91.3638 18.9818 91.2976 18.6509 91.2182 18.3598C91.1388 18.0686 91.1123 17.7378 91.1388 17.3672C91.1256 17.4466 91.1123 17.5128 91.1123 17.579C91.1123 17.6451 91.1123 17.7245 91.0859 17.8172C91.0065 17.7113 90.98 17.5657 90.98 17.3937C90.98 17.2216 90.98 17.0628 91.0065 16.904C91.0197 16.7452 91.0329 16.5996 91.0462 16.4673C91.0462 16.335 91.0329 16.2423 90.98 16.1894C91.0197 15.9115 91.0859 15.6468 91.205 15.4086C91.3108 15.1704 91.377 14.8924 91.4035 14.5748L91.152 14.8263C91.1653 14.7336 91.1785 14.641 91.1917 14.5351C91.205 14.4292 91.2182 14.3366 91.2314 14.244H91.377C91.4299 14.0984 91.4299 13.9925 91.377 13.9396C91.5094 13.7146 91.602 13.4764 91.6417 13.2117C91.6814 12.947 91.774 12.6956 91.9064 12.4574L91.8534 12.378C91.8534 12.378 91.9328 12.2853 91.9328 12.2721C91.8931 12.2191 91.8931 12.1133 91.9328 11.9545C91.9725 11.7957 91.9725 11.703 91.9328 11.6633C91.8931 11.703 91.8402 11.7957 91.774 11.9412C91.7079 12.0868 91.6946 12.1794 91.7343 12.2191C91.6549 12.325 91.6285 12.3515 91.6417 12.2721C91.6417 12.1927 91.6682 12.0868 91.7079 11.9545C91.7476 11.8221 91.7873 11.6765 91.8534 11.531C91.9064 11.3854 91.9328 11.306 91.9328 11.2928C91.9196 11.3854 91.9196 11.4383 91.9328 11.4383C91.9461 11.4383 91.9858 11.4119 92.0122 11.3589C92.0387 11.306 92.0784 11.2531 92.1049 11.1869C92.1314 11.1339 92.1578 11.0942 92.1711 11.081C92.1711 11.0413 92.1446 11.0545 92.0917 11.1075C92.1314 10.9354 92.1975 10.8031 92.3166 10.684L92.6475 10.3531C92.7401 10.2737 92.8195 10.1943 92.8725 10.1149C92.9254 10.0355 92.9916 9.94288 93.071 9.85024C93.1769 9.85024 93.2695 9.85024 93.3224 9.87671C93.64 9.69143 93.9577 9.63849 94.2753 9.70466C94.315 9.7973 94.3944 9.87671 94.5135 9.92964C94.6326 9.98258 94.7385 10.062 94.8046 10.1546C94.884 10.234 94.9502 10.3267 95.0296 10.4325C95.109 10.5384 95.109 10.6443 95.0561 10.7369C95.0958 10.8296 95.1355 10.9487 95.162 11.0942C95.1752 11.1075 95.1884 11.0942 95.2017 11.0678C95.2017 11.0281 95.2017 10.9884 95.2017 10.9354C95.2017 10.8957 95.2017 10.856 95.2149 10.8428C95.2281 10.8296 95.2281 10.8428 95.2281 10.8957C95.3208 11.306 95.2281 11.6633 94.9767 11.9545L95.0561 11.8751C94.9767 11.9677 94.8973 12.0868 94.8046 12.2191C94.712 12.3647 94.6855 12.4706 94.7252 12.5632C94.6194 12.7353 94.54 12.9073 94.487 13.0926C94.4341 13.2779 94.3812 13.4499 94.3018 13.5955L94.4076 13.6484C94.3679 13.7411 94.3282 13.8205 94.3018 13.8999C94.262 13.9793 94.2488 14.0587 94.2488 14.1513C94.262 14.1513 94.2885 14.1513 94.3018 14.1249C94.2091 14.4028 94.1297 14.6807 94.0768 14.9321C94.0238 15.1968 93.9709 15.4615 93.9312 15.7394C94.0106 15.7262 94.0503 15.6865 94.0635 15.66C94.0635 15.6203 94.09 15.5541 94.1297 15.435C94.1297 15.7659 94.0768 16.11 93.9841 16.4408C93.8915 16.7717 93.865 17.1158 93.9047 17.4466L93.9577 17.3937L93.8783 17.8172C93.8783 17.8172 93.918 17.7642 93.9312 17.7775C93.9444 17.7775 93.9841 17.7775 94.0106 17.7642C94.0106 18.0289 94.0503 18.2804 94.1165 18.5186C94.1959 18.7568 94.2488 19.0083 94.2885 19.2729C94.3282 19.2332 94.3679 19.2068 94.3944 19.2068C94.4209 19.2068 94.4473 19.1538 94.4209 19.0744C94.4738 19.2068 94.5664 19.2729 94.6988 19.2862C94.8311 19.2862 94.9767 19.2862 95.1355 19.2332C95.2943 19.1803 95.4399 19.1274 95.5855 19.0347C95.731 18.9421 95.8369 18.8759 95.9031 18.823C95.9957 18.7833 96.0884 18.7436 96.181 18.6774V18.6245C96.181 18.6245 96.1148 18.6642 96.0884 18.6906C96.0619 18.7171 96.0222 18.7436 95.9957 18.7568C96.1281 18.6642 96.2472 18.5715 96.353 18.4921C96.4589 18.4127 96.578 18.3333 96.6839 18.2539V18.1083C96.6839 18.1083 96.6971 17.976 96.7368 17.8834C96.7898 17.8834 96.8559 17.8304 96.9221 17.7245C96.9883 17.6187 97.0544 17.5128 97.1206 17.3937C97.1868 17.2746 97.253 17.1555 97.3324 17.0496C97.4118 16.9437 97.4779 16.8643 97.5309 16.8246C97.5309 16.7849 97.5176 16.7982 97.4779 16.8511C97.4382 16.904 97.425 16.8908 97.4515 16.7982C97.7691 16.3747 98.0867 15.8585 98.4176 15.2498C98.7484 14.641 98.9866 14.0719 99.1322 13.5293C99.2248 13.5161 99.3043 13.4499 99.3704 13.3308C99.4366 13.2249 99.4895 13.0926 99.5557 12.9735C99.6086 12.8412 99.6616 12.7088 99.7277 12.5632C99.7939 12.4177 99.8336 12.3118 99.8998 12.2456C99.9527 12.1662 100.006 12.0868 100.045 12.0074C100.085 11.928 100.151 11.8486 100.244 11.7957C100.284 11.703 100.27 11.6633 100.244 11.6898C100.191 11.703 100.151 11.7427 100.112 11.7692C100.072 11.7957 100.045 11.8486 100.019 11.9148C99.9924 11.9677 99.9527 12.0074 99.8866 12.0206C99.9792 11.8751 100.019 11.756 99.9924 11.6501C99.9792 11.5574 100.098 11.4648 100.35 11.3722C100.31 11.3589 100.27 11.3722 100.204 11.3986C100.337 11.306 100.389 11.2928 100.376 11.3589C100.363 11.4251 100.376 11.4516 100.456 11.4516C100.561 11.4119 100.667 11.3986 100.76 11.3986C100.76 11.3589 100.76 11.3325 100.773 11.3325C100.786 11.3325 100.786 11.306 100.786 11.2663C100.932 11.3192 101.064 11.4119 101.17 11.5177C101.475 11.6236 101.66 11.8354 101.753 12.1265C101.858 12.4574 101.938 12.8014 101.978 13.1323C102.03 13.4102 102.097 13.6881 102.176 13.9661C102.255 14.244 102.335 14.5219 102.428 14.7733C102.428 14.866 102.375 14.8527 102.282 14.7204C102.361 14.9454 102.401 15.1968 102.414 15.4615C102.414 15.7262 102.494 15.9909 102.626 16.2291V16.0835C102.705 16.2688 102.745 16.4276 102.785 16.5599C102.811 16.6923 102.838 16.8246 102.838 16.957C102.838 17.0893 102.851 17.2216 102.864 17.3805C102.864 17.526 102.904 17.7113 102.957 17.9363C102.917 17.8569 102.877 17.7245 102.851 17.526C102.825 17.3275 102.745 17.2084 102.652 17.1819C102.613 17.2613 102.639 17.3805 102.705 17.5657C102.785 17.751 102.838 17.8701 102.877 17.9231L102.825 17.8966C102.864 18.0422 102.904 18.1745 102.944 18.3068C102.997 18.426 103.036 18.5583 103.076 18.6906C103.129 18.9024 103.222 19.1141 103.327 19.3391C103.433 19.5641 103.526 19.7891 103.579 20.014L103.539 20.0008ZM91.1653 14.0984C91.205 13.9131 91.2447 13.8469 91.3108 13.8999C91.2711 13.9793 91.2314 14.0455 91.1653 14.0984ZM91.4167 15.3027C91.4167 15.3027 91.3902 15.1836 91.3902 15.1042C91.3902 15.0248 91.4035 14.9454 91.4432 14.8527C91.4035 14.8527 91.3638 14.9321 91.3108 15.0777C91.2579 15.2233 91.2182 15.3292 91.1917 15.3821C91.1917 15.4747 91.2182 15.488 91.2579 15.4218C91.3108 15.3556 91.3505 15.3027 91.377 15.263C91.377 15.3027 91.377 15.3424 91.377 15.3689C91.377 15.4086 91.3505 15.4615 91.3373 15.5409C91.4299 15.5277 91.4564 15.435 91.4167 15.2895V15.3027ZM91.3373 14.2704C91.3373 14.2704 91.3902 14.1646 91.3902 14.019L91.4167 13.8469C91.377 13.9263 91.3638 13.9925 91.3638 14.0587C91.3638 14.1249 91.3638 14.191 91.3373 14.2704ZM91.6946 18.5715C91.7343 18.3598 91.7079 18.1745 91.6417 17.9892C91.6285 18.0686 91.6152 18.1877 91.6152 18.3465L91.5888 18.2671L91.5094 18.3465C91.5094 18.3465 91.602 18.3465 91.6152 18.3995C91.6285 18.4524 91.6417 18.5318 91.6417 18.6245C91.6417 18.7171 91.6417 18.8097 91.6285 18.8891C91.6285 18.9685 91.6285 19.0215 91.6417 19.048C91.6417 18.995 91.6417 18.9288 91.6549 18.8362C91.6549 18.7568 91.6814 18.6642 91.6946 18.5715ZM91.774 12.3383C91.7343 12.4309 91.7211 12.4177 91.7476 12.2853L91.774 12.3383ZM92.0255 14.8263C92.0255 14.8263 92.052 14.7204 92.052 14.6675C92.052 14.6278 92.0519 14.5748 92.0784 14.5086C92.0387 14.6542 91.999 14.7469 91.9328 14.7866C91.9461 14.8395 91.9858 14.8527 92.0122 14.813L92.0255 14.8263ZM91.999 13.8205C92.0123 13.6484 92.0652 13.5426 92.1578 13.5029C92.2505 13.4632 92.2769 13.344 92.2505 13.1588C92.2108 13.1985 92.1975 13.2514 92.2108 13.3176C92.2108 13.3837 92.2108 13.4367 92.1711 13.4764C92.1181 13.4367 92.0784 13.5029 92.0652 13.6749C92.0255 13.7146 92.0122 13.7675 92.0122 13.8469L91.999 13.8205ZM92.1711 19.3259C92.1711 19.4053 92.1711 19.4317 92.1975 19.4317L92.1711 19.3259ZM92.6739 11.9412C92.6872 11.8618 92.7401 11.7427 92.8195 11.5574C92.7137 11.703 92.621 11.8089 92.5681 11.8618C92.5813 11.9015 92.6078 11.9148 92.621 11.9148C92.6343 11.9148 92.6607 11.9148 92.6739 11.9412ZM93.6533 16.2953C93.5606 16.4673 93.4945 16.5864 93.4415 16.679C93.3886 16.7585 93.3489 16.904 93.3092 17.1158C93.3621 17.1687 93.4151 17.2084 93.4548 17.2216C93.4151 17.129 93.3886 17.0628 93.3754 17.0364C93.3621 17.0099 93.3754 16.9305 93.4018 16.7982C93.4548 16.8114 93.5077 16.7982 93.5739 16.7452C93.6533 16.6658 93.6798 16.5202 93.6533 16.2953ZM93.7591 21.8801C93.8915 21.9595 94.0371 21.9595 94.2091 21.9065C94.0768 21.8139 93.9577 21.7742 93.8518 21.7874C93.7459 21.7874 93.6136 21.761 93.4945 21.6948C93.5342 21.7345 93.5739 21.761 93.6136 21.7874C93.6665 21.8139 93.7062 21.8536 93.7724 21.8801H93.7591ZM93.7591 15.8982C93.6533 16.0306 93.6136 16.1364 93.6797 16.2159C93.7327 16.2953 93.7724 16.4011 93.7856 16.507C93.7856 16.4144 93.7856 16.3217 93.7724 16.2159C93.7724 16.11 93.7591 16.0041 93.7591 15.8982ZM93.7591 19.3391C93.7591 19.3391 93.7592 19.2332 93.7327 19.1406C93.6797 19.1406 93.6665 19.2068 93.7062 19.3391H93.7591ZM94.54 19.4847C94.4606 19.445 94.3944 19.4053 94.3282 19.3788C94.262 19.3391 94.1959 19.3126 94.1165 19.2994C94.1562 19.3523 94.2091 19.4053 94.3018 19.445C94.3944 19.4847 94.4606 19.4979 94.54 19.4979V19.4847ZM94.3415 13.8469C94.3415 13.8469 94.3415 13.9528 94.315 13.9925C94.3018 14.0322 94.2753 14.0719 94.2621 14.0984L94.3415 13.8469ZM94.5664 21.8668C94.6458 21.8668 94.7252 21.8668 94.8046 21.8801C94.884 21.8933 94.9635 21.8801 95.0164 21.8404C94.9767 21.8007 94.937 21.7874 94.8973 21.8007C94.8443 21.8007 94.8046 21.8007 94.7782 21.7874C94.6326 21.7742 94.5929 21.7477 94.6458 21.7345C94.712 21.7212 94.7782 21.708 94.8311 21.708C94.6988 21.708 94.6194 21.6815 94.5929 21.6286C94.5664 21.5757 94.4738 21.5624 94.3018 21.6021H94.5532C94.4606 21.6154 94.4209 21.6286 94.4606 21.6418C94.487 21.6418 94.5267 21.6815 94.5532 21.708L94.6326 21.761C94.6326 21.761 94.5532 21.8007 94.4341 21.8139C94.3415 21.8139 94.3812 21.8271 94.5797 21.8668H94.5664ZM94.54 19.2729C94.54 19.2729 94.6194 19.3259 94.6458 19.3259L94.5664 19.4053C94.5664 19.4053 94.6326 19.4185 94.6591 19.4053C94.6855 19.392 94.7252 19.3788 94.7517 19.3788C94.7385 19.3656 94.712 19.3523 94.6988 19.3523C94.6855 19.3523 94.6591 19.3523 94.6458 19.3259C94.6591 19.3126 94.6591 19.2994 94.6326 19.2862C94.6061 19.2862 94.5664 19.2729 94.54 19.2729ZM94.7385 12.5897C94.7385 12.5897 94.6855 12.5765 94.6855 12.5368L94.712 12.4838L94.7385 12.5897ZM95.9693 18.7303C95.9693 18.7303 95.9163 18.7436 95.8898 18.7833L95.9693 18.7303ZM96.9221 18.5583C97.0015 18.4789 97.0677 18.4127 97.1339 18.3333C97.2 18.2539 97.2662 18.1745 97.3456 18.0819C97.3059 18.0819 97.2662 18.0951 97.2397 18.1348C97.2 18.1745 97.1471 18.2274 97.0809 18.3201C97.0147 18.3995 96.9618 18.4789 96.9221 18.5583ZM97.7823 17.354C97.7823 17.354 97.7823 17.4202 97.7691 17.4202C97.7559 17.4202 97.7559 17.4466 97.7559 17.4599C97.7956 17.4202 97.8088 17.3805 97.7823 17.354C97.8617 17.1819 97.9544 16.9702 98.0867 16.6923C98.2191 16.4276 98.3249 16.2159 98.4176 16.057C98.4176 16.0041 98.4043 15.9909 98.3646 16.0173C98.3249 16.0438 98.2852 16.0835 98.2191 16.1232C98.1661 16.1762 98.0867 16.2556 97.9941 16.3614C98.0999 16.3614 98.1529 16.3879 98.1397 16.4408C98.1264 16.4938 98.0735 16.5732 97.9941 16.6658C97.9147 16.7585 97.8485 16.8511 97.7691 16.9437C97.6897 17.0364 97.6632 17.1158 97.6632 17.1687C97.7029 17.129 97.7426 17.0761 97.7956 17.0099C97.8353 16.9437 97.8882 16.904 97.9544 16.8908C97.9147 17.0364 97.8353 17.1819 97.7029 17.3143C97.65 17.3143 97.6103 17.3408 97.597 17.3937C97.6103 17.3805 97.6368 17.3672 97.65 17.354C97.6632 17.354 97.6897 17.3275 97.7029 17.3143C97.7559 17.3011 97.7823 17.3143 97.7823 17.3408V17.354ZM98.1794 19.392C98.2191 19.2994 98.2588 19.2332 98.2852 19.1803C98.3117 19.1274 98.3382 19.1009 98.3117 19.0877C98.2191 19.1803 98.1132 19.2994 98.0073 19.445C98.0205 19.4317 98.0602 19.4053 98.1 19.3788C98.1529 19.3523 98.1661 19.3523 98.1661 19.3788L98.1794 19.392ZM98.6028 15.9776C98.7352 15.8453 98.8278 15.6997 98.8808 15.5144C98.9337 15.3292 99.0131 15.1704 99.1057 15.0248C99.0263 15.1307 98.9602 15.2101 98.9072 15.2498C98.8146 15.3821 98.7352 15.5012 98.669 15.6335C98.6028 15.7527 98.5764 15.8718 98.6028 15.9776ZM99.4631 13.9925C99.4631 13.9925 99.4895 13.9131 99.4895 13.8469C99.4895 13.7808 99.4895 13.7411 99.516 13.7014L99.4366 13.8999L99.4631 13.9793V13.9925ZM101.276 11.9809C101.422 12.1265 101.501 12.325 101.488 12.5632C101.488 12.8014 101.514 13.0794 101.607 13.3705C101.594 13.2249 101.581 13.0794 101.567 12.9338C101.567 12.7882 101.541 12.6559 101.528 12.4971C101.514 12.4044 101.501 12.3118 101.488 12.2324C101.488 12.153 101.448 12.0736 101.395 11.9942C101.303 11.8486 101.17 11.7427 100.998 11.6898C100.826 11.6368 100.667 11.6368 100.495 11.6898C100.442 11.703 100.376 11.756 100.297 11.8354C100.389 11.7957 100.456 11.7957 100.495 11.8089C100.548 11.7692 100.614 11.756 100.681 11.756H100.866L100.76 11.703C100.892 11.6633 100.998 11.6765 101.078 11.7427C101.157 11.8089 101.236 11.8883 101.289 11.9809H101.276ZM100.442 17.2878C100.442 17.2878 100.442 17.2084 100.456 17.1422C100.456 17.0893 100.456 17.0628 100.416 17.0893C100.429 17.129 100.429 17.2216 100.416 17.3805C100.389 17.5393 100.389 17.6054 100.416 17.5657C100.416 17.526 100.416 17.4863 100.429 17.4466C100.442 17.4069 100.442 17.354 100.442 17.2878ZM100.416 16.8908C100.416 16.8908 100.469 16.9173 100.456 16.8511C100.456 16.7849 100.442 16.7452 100.442 16.7187C100.442 16.7055 100.442 16.7055 100.416 16.7187V16.8908ZM101.594 12.4971C101.594 12.4971 101.62 12.3912 101.62 12.325C101.62 12.2588 101.62 12.2191 101.647 12.1794C101.607 12.1662 101.567 12.153 101.541 12.153C101.554 12.2059 101.567 12.2588 101.567 12.325C101.567 12.3912 101.567 12.4309 101.594 12.4971ZM101.991 14.9586C101.991 14.9586 102.017 14.8527 102.03 14.7601C102.03 14.6675 102.03 14.5484 102.017 14.4028L102.097 14.5484C102.083 14.4028 102.083 14.2704 102.097 14.1381C102.11 14.019 102.083 13.8734 101.991 13.7014C101.938 13.7146 101.911 13.7808 101.925 13.8866C101.938 13.9925 101.938 14.0719 101.938 14.1513C101.898 14.1116 101.898 14.019 101.925 13.8602C101.951 13.7014 101.925 13.5426 101.832 13.3705C101.792 13.569 101.792 13.8072 101.832 14.0587C101.872 14.3101 101.911 14.5351 101.978 14.7469L101.951 14.7204C101.951 14.7204 101.978 14.7998 101.978 14.8395C101.978 14.8792 101.978 14.9321 102.004 14.9586H101.991ZM102.136 20.3581C102.189 20.4508 102.216 20.464 102.216 20.3846C102.203 20.3449 102.176 20.3052 102.163 20.2655C102.15 20.2126 102.123 20.1729 102.11 20.1332C102.07 20.1729 102.057 20.2126 102.083 20.239C102.097 20.2787 102.123 20.3184 102.136 20.3449V20.3581ZM102.533 16.7187C102.586 16.6129 102.56 16.4408 102.467 16.2026C102.361 15.9644 102.308 15.7924 102.308 15.6865C102.255 15.6865 102.229 15.7262 102.229 15.7924C102.269 15.9776 102.308 16.1629 102.375 16.335C102.428 16.507 102.48 16.6923 102.52 16.8776C102.507 16.7849 102.48 16.679 102.467 16.5732C102.454 16.4673 102.428 16.335 102.414 16.2159C102.454 16.3085 102.467 16.3879 102.48 16.4673C102.48 16.5467 102.507 16.6261 102.547 16.7187H102.533ZM102.679 17.3937C102.679 17.3937 102.652 17.2746 102.639 17.2084C102.639 17.1422 102.613 17.0761 102.6 17.0231V17.129L102.679 17.3805V17.3937ZM103.155 18.7039L103.129 18.426L103.235 18.7039H103.155ZM103.46 18.9553C103.38 18.8494 103.354 18.77 103.367 18.7436C103.367 18.7171 103.367 18.6509 103.354 18.5583C103.367 18.6112 103.38 18.6774 103.394 18.7436C103.394 18.8097 103.42 18.8759 103.46 18.9553Z" fill="white"/>
<path d="M110.474 13.9131C110.474 13.9131 110.474 14.072 110.407 14.2175C110.328 14.3631 110.315 14.4557 110.368 14.4954C110.421 14.4293 110.487 14.3366 110.579 14.2175C110.672 14.0984 110.699 14.0323 110.659 14.0323C110.738 13.9661 110.778 13.9661 110.765 14.019C110.751 14.072 110.712 14.1514 110.646 14.2705C110.579 14.3896 110.513 14.4954 110.447 14.6146C110.381 14.7337 110.341 14.7866 110.341 14.8131C110.381 14.6675 110.368 14.641 110.288 14.7337C110.209 14.8263 110.156 14.9189 110.116 15.0116L110.182 14.9586C110.143 15.091 110.103 15.1836 110.05 15.263C109.997 15.3424 109.931 15.4086 109.865 15.4615C109.799 15.5145 109.746 15.5806 109.706 15.6733C109.666 15.7527 109.653 15.8453 109.68 15.9644H109.507C109.507 16.0703 109.481 16.1365 109.468 16.2026C109.455 16.2688 109.441 16.335 109.428 16.4144C109.349 16.4144 109.296 16.4276 109.269 16.4938C109.23 16.56 109.203 16.6261 109.177 16.6923C109.15 16.7585 109.124 16.8247 109.084 16.8908C109.044 16.957 108.991 16.9835 108.925 16.9702C108.872 17.0761 108.859 17.1423 108.859 17.1555C108.859 17.1687 108.885 17.1687 108.912 17.1555C108.938 17.129 108.965 17.1158 108.991 17.0893C109.018 17.0761 109.005 17.0893 108.991 17.1158C108.991 17.2084 108.938 17.3143 108.859 17.4334C108.793 17.5525 108.713 17.6849 108.634 17.804C108.568 17.9231 108.502 18.0422 108.449 18.1613C108.396 18.2804 108.369 18.373 108.383 18.4525C108.263 18.6245 108.171 18.8098 108.118 18.995C108.052 19.1803 107.959 19.3788 107.84 19.5641C107.866 19.6038 107.906 19.6303 107.946 19.6303C107.866 19.7759 107.8 19.9082 107.721 20.0405C107.641 20.1729 107.575 20.3052 107.522 20.4508C107.562 20.4508 107.589 20.4508 107.615 20.4111C107.536 20.5699 107.443 20.7287 107.337 20.9008C107.231 21.0596 107.112 21.2051 106.967 21.3243C106.834 21.4434 106.675 21.536 106.503 21.6022C106.331 21.6683 106.146 21.6683 105.947 21.6286C105.974 21.7213 106.027 21.7742 106.12 21.7875C106.212 21.7875 106.305 21.7875 106.397 21.7742C106.106 21.8536 105.855 21.8404 105.643 21.761C105.431 21.6816 105.259 21.536 105.127 21.3375C104.995 21.139 104.902 20.914 104.836 20.6625C104.77 20.4111 104.73 20.1597 104.703 19.9082C104.677 19.9479 104.664 19.9876 104.651 20.0405C104.651 19.9082 104.651 19.7891 104.677 19.67C104.69 19.5509 104.703 19.4185 104.73 19.2994C104.703 19.3656 104.677 19.4053 104.677 19.4053C104.677 19.4053 104.651 19.4053 104.611 19.4053C104.611 19.0348 104.611 18.6245 104.624 18.201C104.637 17.7775 104.73 17.407 104.876 17.1026C104.862 17.1026 104.836 17.0893 104.823 17.0496C104.809 17.0232 104.796 16.9967 104.77 16.9702C104.756 16.9438 104.73 16.9438 104.717 16.9702C104.69 16.9835 104.677 17.0364 104.664 17.129C104.756 16.732 104.823 16.2953 104.849 15.8189C104.876 15.3424 104.928 14.8925 104.981 14.469L105.087 14.1117L105.061 14.0852L105.008 14.3366C105.061 13.9661 105.127 13.6485 105.22 13.3838C105.206 13.3441 105.18 13.3044 105.153 13.2514C105.127 13.1985 105.101 13.1323 105.074 13.0265C105.14 12.9735 105.167 12.8941 105.153 12.7485C105.153 12.6162 105.153 12.4971 105.153 12.4045C105.167 11.9942 105.339 11.6633 105.683 11.3987C105.723 11.3722 105.775 11.3457 105.842 11.3193C105.908 11.306 105.974 11.2796 106.04 11.2399C106.08 11.2134 106.067 11.2001 105.987 11.2399L105.868 11.2796C105.947 11.2001 106.067 11.1472 106.199 11.134C106.331 11.134 106.45 11.134 106.569 11.134C106.914 11.1737 107.205 11.3325 107.43 11.5839C107.655 11.8354 107.761 12.1398 107.747 12.4971C107.734 12.7618 107.708 13.0265 107.655 13.3044C107.615 13.5823 107.589 13.847 107.589 14.1117C107.668 13.9396 107.747 13.7676 107.84 13.5955C107.933 13.4367 108.012 13.2647 108.091 13.1059C108.118 13.0926 108.144 13.0265 108.197 12.9074C108.25 12.7882 108.303 12.6824 108.356 12.5765C108.409 12.4706 108.449 12.3912 108.488 12.3515C108.528 12.3118 108.528 12.3515 108.515 12.5103C108.66 12.2721 108.833 12.0471 109.031 11.8486C109.23 11.6501 109.388 11.4251 109.507 11.1737C109.494 11.1869 109.468 11.2001 109.455 11.2134C109.428 11.2134 109.415 11.2399 109.388 11.2796C109.587 10.9355 109.812 10.684 110.077 10.5384C110.341 10.3929 110.632 10.2076 110.937 9.95614C110.897 9.98261 110.844 10.0223 110.778 10.0752C110.712 10.1282 110.646 10.1811 110.579 10.2341C110.5 10.287 110.447 10.3399 110.394 10.3929C110.341 10.4458 110.315 10.4987 110.328 10.5517C110.421 10.5517 110.54 10.4723 110.685 10.3399C110.831 10.2076 110.91 10.115 110.963 10.0355V10.0885C111.082 10.0091 111.201 9.92967 111.321 9.8635C111.44 9.79733 111.559 9.71793 111.691 9.63852C111.85 9.57235 111.995 9.49295 112.141 9.42678C112.287 9.36061 112.432 9.3209 112.604 9.30767C113.054 9.29443 113.504 9.37384 113.928 9.53265C114.02 9.58559 114.113 9.63852 114.219 9.69146C114.325 9.75763 114.417 9.83703 114.497 9.94291C114.47 9.9032 114.431 9.8635 114.404 9.8238C114.378 9.7841 114.338 9.7444 114.311 9.70469C114.364 9.7444 114.417 9.79733 114.47 9.83703C114.536 9.88997 114.576 9.92967 114.603 9.96938C114.656 9.99584 114.669 9.96938 114.656 9.88997C114.642 9.81057 114.669 9.79733 114.761 9.85027C114.854 9.90321 114.933 9.98261 115 10.1017C115.066 10.2208 115.145 10.3267 115.225 10.4193C115.357 10.5914 115.503 10.737 115.661 10.8693C115.82 11.0016 115.939 11.1472 116.019 11.306C116.045 11.359 116.072 11.4516 116.098 11.5575C116.125 11.6633 116.098 11.6633 116.019 11.5575C115.979 11.5178 115.966 11.4913 115.939 11.4781C115.926 11.4781 115.9 11.4516 115.886 11.4251C115.873 11.4251 115.86 11.4648 115.873 11.5707C115.9 11.6633 115.926 11.7427 115.939 11.7825C115.966 11.8222 115.979 11.8486 116.005 11.8619C116.019 11.8619 116.045 11.8883 116.072 11.9148C116.098 11.9413 116.125 11.981 116.151 12.0339L116.032 12.2721C116.058 12.3912 116.072 12.4574 116.085 12.4839C116.098 12.5103 116.125 12.5103 116.138 12.4839C116.151 12.4574 116.177 12.4574 116.191 12.4442C116.191 12.4442 116.191 12.4706 116.191 12.5368C116.23 12.6427 116.27 12.6824 116.283 12.6824C116.297 12.6824 116.31 12.6427 116.31 12.603C116.31 12.55 116.31 12.4971 116.31 12.4309C116.31 12.3648 116.31 12.3118 116.35 12.2853C116.35 12.3648 116.35 12.4839 116.376 12.6427C116.402 12.8015 116.442 12.9338 116.482 13.0132C116.495 13.0132 116.508 12.9868 116.508 12.9338C116.508 12.8809 116.508 12.8279 116.508 12.775C116.508 12.7221 116.508 12.6956 116.495 12.6824C116.495 12.6824 116.495 12.7088 116.522 12.7882C116.588 13.2911 116.667 13.7279 116.773 14.1249C116.879 14.5219 116.932 14.9586 116.972 15.4351L117.038 15.3292C117.038 15.4086 117.038 15.4615 117.038 15.5145C117.024 15.5542 117.038 15.6071 117.064 15.6733L117.104 15.5939C117.104 15.8056 117.104 16.1232 117.104 16.5467C117.104 16.9835 117.104 17.3275 117.144 17.5922L117.223 17.2084L117.144 17.8437L117.289 17.7775C117.21 17.9496 117.196 18.201 117.236 18.5186C117.276 18.8362 117.302 19.1009 117.316 19.3259H117.408L117.382 19.67L117.461 19.5376C117.461 19.842 117.461 20.1332 117.421 20.4376C117.382 20.742 117.316 21.0199 117.17 21.2713C117.223 21.1654 117.263 21.0728 117.302 20.9934C117.342 20.914 117.382 20.8346 117.435 20.742C117.501 20.6625 117.554 20.6361 117.58 20.6758C117.554 20.9008 117.474 21.0993 117.342 21.2846C117.21 21.4698 117.064 21.6154 116.892 21.7345C116.72 21.8536 116.522 21.9463 116.323 21.9992C116.111 22.0521 115.913 22.0654 115.688 22.0124C115.648 22.0389 115.582 22.0521 115.476 22.0257C115.37 21.9992 115.278 21.986 115.185 21.9595C115.092 21.933 115.026 21.9198 114.986 21.9066C114.947 21.8933 114.986 21.9066 115.066 21.986C114.828 21.8404 114.629 21.6286 114.51 21.3507V21.4566C114.311 21.2316 114.192 20.9669 114.126 20.689C114.06 20.4111 114.02 20.12 114.02 19.8156C114.02 19.5112 114.02 19.22 114.047 18.9156C114.06 18.6245 114.086 18.3333 114.1 18.0554C114.126 17.407 114.06 16.732 113.914 16.0571L113.875 16.11L114.007 15.1175C113.981 15.0248 113.941 14.9454 113.875 14.9057C113.822 14.866 113.769 14.7734 113.729 14.6278C113.782 14.6543 113.809 14.6278 113.809 14.5616C113.809 14.4954 113.809 14.416 113.782 14.3234C113.769 14.2308 113.756 14.1381 113.756 14.0323C113.756 13.9396 113.756 13.8867 113.809 13.8734C113.742 13.7676 113.703 13.7543 113.703 13.8205C113.703 13.8867 113.676 13.9396 113.65 13.9661C113.584 13.794 113.531 13.6088 113.504 13.4102C113.464 13.225 113.438 13.0265 113.412 12.8279C113.385 12.6427 113.332 12.4442 113.279 12.2589C113.213 12.0736 113.134 11.9148 113.015 11.7825C113.213 11.9413 113.359 12.1265 113.451 12.3383C113.531 12.55 113.637 12.7618 113.729 12.9868C113.689 12.7221 113.623 12.4839 113.517 12.2721C113.412 12.0604 113.292 11.8486 113.147 11.6236C113.173 11.6633 113.2 11.7427 113.226 11.8619C113.107 11.7957 113.028 11.7295 113.001 11.6633C112.975 11.6236 112.935 11.6104 112.895 11.6236C112.856 11.6369 112.842 11.6633 112.856 11.703C112.67 11.6633 112.498 11.6766 112.326 11.756C112.154 11.8354 112.009 11.9545 111.903 12.1133L112.247 12.0736C112.115 12.1927 111.995 12.3251 111.89 12.4839L111.757 12.378C111.665 12.5103 111.625 12.603 111.638 12.6427C111.413 12.7618 111.241 12.9338 111.109 13.1456C110.976 13.3705 110.831 13.5691 110.646 13.7543V13.847L110.566 13.9131H110.474ZM104.889 16.2821C104.889 16.2821 104.836 16.3085 104.809 16.4673C104.836 16.4276 104.849 16.4012 104.849 16.3747C104.849 16.3482 104.862 16.3218 104.889 16.2821C104.928 16.3085 104.942 16.335 104.942 16.3747C104.942 16.4144 104.942 16.3218 104.942 16.0968L104.889 16.2821ZM105.021 17.1952C105.021 17.1952 105.021 17.1423 105.021 16.9173C105.021 16.6923 105.034 16.5203 105.021 16.4144C104.968 16.4806 104.942 16.6261 104.942 16.8247C104.942 17.0232 104.942 17.1555 105.008 17.1952H105.021ZM105.378 21.2978C105.378 21.2978 105.458 21.364 105.524 21.3904C105.59 21.4037 105.643 21.4301 105.696 21.4566C105.617 21.3507 105.537 21.2846 105.484 21.2449C105.418 21.2051 105.365 21.1787 105.312 21.1654C105.259 21.1522 105.206 21.1257 105.153 21.0993C105.1 21.0728 105.048 21.0066 105.008 20.914C105.048 21.0199 105.101 21.086 105.167 21.139C105.233 21.1919 105.299 21.2449 105.378 21.311V21.2978ZM105.18 20.0273C105.18 20.0273 105.22 20.12 105.22 20.1597C105.22 20.2126 105.22 20.2655 105.22 20.3449C105.114 20.4376 105.074 20.5699 105.114 20.7287C105.153 20.8875 105.22 21.0066 105.312 21.0993C105.246 20.8875 105.22 20.689 105.22 20.5302C105.22 20.3582 105.22 20.1597 105.22 19.9347H105.114C105.114 19.9347 105.14 19.9876 105.153 20.0008C105.153 20.0008 105.18 20.0273 105.193 20.0538L105.18 20.0273ZM105.22 17.6055C105.22 17.6055 105.286 17.6055 105.312 17.579C105.339 17.5393 105.352 17.4864 105.365 17.4334C105.339 17.4467 105.325 17.4467 105.312 17.4334C105.299 17.4202 105.273 17.4731 105.233 17.6187L105.22 17.6055ZM105.683 12.7882C105.63 12.8809 105.603 12.9868 105.603 13.1191C105.603 13.2514 105.603 13.3573 105.63 13.4632C105.643 13.3308 105.656 13.2117 105.683 13.1059C105.696 13 105.696 12.8941 105.683 12.8015V12.7882ZM107.244 12.2589C107.244 12.2589 107.324 12.2986 107.337 12.2456C107.337 12.1927 107.337 12.1398 107.337 12.1001C107.337 11.928 107.244 11.756 107.072 11.5575C107.099 11.6898 107.072 11.7427 106.98 11.703C106.9 11.6633 106.794 11.6236 106.675 11.5707C106.556 11.5178 106.411 11.4913 106.265 11.4913C106.12 11.4913 105.974 11.5707 105.842 11.7427C105.908 11.6898 105.987 11.6501 106.106 11.5972C106.212 11.5442 106.305 11.5442 106.371 11.5972C106.186 11.6236 106.014 11.7427 105.855 11.928C105.815 11.928 105.775 11.9545 105.736 12.0207C105.762 12.0074 105.789 11.9677 105.828 11.9148C105.868 11.8619 105.908 11.8751 105.934 11.928C105.908 11.9677 105.895 12.0074 105.881 12.0604C105.908 12.0207 105.921 11.981 105.934 11.928C106.014 11.7825 106.12 11.703 106.265 11.6633C106.411 11.6236 106.556 11.6236 106.702 11.6633C106.847 11.703 106.98 11.7692 107.086 11.8883C107.191 11.9942 107.258 12.1265 107.271 12.2853L107.244 12.2589ZM107.086 14.9983V14.7998L107.046 14.6807L107.086 14.9983ZM107.086 13.5558C107.152 13.3441 107.205 13.1323 107.244 12.9471C107.284 12.7485 107.271 12.5765 107.205 12.4177C107.205 12.4309 107.205 12.4442 107.191 12.4442C107.191 12.4442 107.178 12.4442 107.178 12.4706C107.152 12.6956 107.125 12.8676 107.125 13C107.125 13.1323 107.112 13.2514 107.099 13.3705C107.099 13.4764 107.099 13.5426 107.099 13.5691L107.086 13.5558ZM107.443 15.316C107.443 15.2366 107.483 15.1704 107.522 15.1042C107.443 15.1042 107.377 15.2233 107.311 15.4483C107.337 15.4086 107.35 15.3954 107.377 15.3821C107.39 15.3821 107.416 15.3557 107.443 15.316ZM107.536 15.0777C107.615 14.8792 107.708 14.694 107.787 14.5219C107.88 14.3499 107.972 14.1646 108.065 13.9661C107.986 14.1249 107.88 14.3102 107.721 14.5087C107.575 14.7204 107.509 14.9057 107.522 15.0777H107.536ZM107.536 14.6013C107.536 14.6013 107.536 14.694 107.549 14.7204C107.549 14.6807 107.575 14.6278 107.628 14.5616L107.536 14.6013ZM107.602 20.3582C107.628 20.292 107.655 20.2258 107.681 20.1729C107.708 20.12 107.747 20.0538 107.787 19.9611C107.734 20.0538 107.694 20.1332 107.668 20.1994C107.641 20.2655 107.615 20.3185 107.589 20.3582H107.602ZM108.78 12.6427C108.78 12.6427 108.819 12.5765 108.846 12.5368C108.872 12.4971 108.899 12.4706 108.912 12.4309C108.833 12.4971 108.753 12.55 108.7 12.603C108.647 12.6559 108.581 12.7221 108.488 12.8279V12.6824C108.396 12.8147 108.303 12.9338 108.211 13.0132C108.118 13.0926 108.052 13.2382 108.012 13.4367C108.052 13.4632 108.105 13.4235 108.171 13.3176C108.237 13.2117 108.303 13.1323 108.369 13.0926C108.343 13.1853 108.25 13.2911 108.118 13.397C107.986 13.5029 107.919 13.6352 107.919 13.7676C108.065 13.6617 108.211 13.4764 108.369 13.2514C108.528 13.0132 108.66 12.8147 108.78 12.6427ZM108.409 18.4525C108.409 18.4525 108.356 18.426 108.356 18.3863L108.396 18.3333V18.4525H108.409ZM109.428 11.6766C109.653 11.3722 109.904 11.0678 110.169 10.7899C110.024 10.8958 109.865 11.0678 109.68 11.2928C109.732 11.2001 109.785 11.134 109.838 11.0546C109.891 10.9884 109.957 10.9222 110.024 10.8561C109.944 10.8561 109.878 10.909 109.812 10.9884C109.746 11.0678 109.68 11.1472 109.613 11.2531C109.547 11.3325 109.481 11.4251 109.441 11.5178C109.388 11.6104 109.349 11.6633 109.309 11.703C109.362 11.7295 109.415 11.7295 109.455 11.703L109.428 11.6766ZM109.441 14.3499C109.574 14.2175 109.68 14.1249 109.759 14.0852L109.666 13.9661L109.441 14.3631V14.3499ZM110.354 10.5781C110.447 10.4723 110.513 10.4061 110.553 10.3796C110.513 10.4193 110.46 10.459 110.407 10.4987C110.354 10.5517 110.302 10.5914 110.262 10.6178C110.288 10.5781 110.315 10.5649 110.354 10.5781ZM110.593 12.6427C110.593 12.6427 110.685 12.6427 110.778 12.4971C110.804 12.4839 110.804 12.4706 110.804 12.4574C110.804 12.4574 110.804 12.4309 110.844 12.4177C110.751 12.5236 110.672 12.5765 110.593 12.5897C110.513 12.603 110.447 12.7088 110.381 12.8809C110.421 12.8544 110.46 12.8015 110.487 12.7485C110.513 12.6956 110.54 12.6559 110.593 12.6162V12.6427ZM110.593 13.794C110.672 13.7279 110.685 13.7543 110.619 13.8602L110.593 13.794ZM111.201 11.6766C111.307 11.5575 111.4 11.5178 111.479 11.5442C111.479 11.4913 111.466 11.4516 111.413 11.4516L111.215 11.6766H111.201ZM111.546 12.4839C111.546 12.4839 111.598 12.4177 111.612 12.3912C111.638 12.3648 111.651 12.3383 111.678 12.2986C111.651 12.2589 111.612 12.2986 111.572 12.378C111.532 12.4706 111.493 12.5368 111.453 12.5765C111.493 12.5368 111.532 12.5103 111.546 12.4706V12.4839ZM111.744 9.49295C111.744 9.49295 111.651 9.51942 111.598 9.51942C111.546 9.51942 111.493 9.53265 111.453 9.57235C111.519 9.51942 111.612 9.46648 111.731 9.41354V9.50618L111.744 9.49295ZM111.506 9.34737L111.546 9.3209C111.546 9.3209 111.572 9.3209 111.598 9.29444C111.572 9.30767 111.559 9.3209 111.546 9.3209C111.532 9.3209 111.519 9.3209 111.506 9.34737ZM111.784 12.5368C111.678 12.6559 111.612 12.6691 111.585 12.5897C111.665 12.5633 111.731 12.5368 111.784 12.5368ZM112.035 9.16209C111.916 9.2415 111.823 9.26797 111.77 9.26797C111.731 9.2812 111.704 9.29443 111.691 9.2812C111.678 9.2812 111.638 9.2812 111.612 9.29444C111.691 9.26797 111.757 9.2415 111.837 9.22826C111.903 9.21503 111.982 9.18856 112.062 9.16209H112.035ZM112.366 11.6236C112.366 11.6236 112.393 11.5575 112.326 11.5575C112.26 11.5575 112.22 11.5575 112.207 11.5442C112.234 11.5045 112.287 11.4781 112.393 11.4516C112.313 11.359 112.234 11.3987 112.168 11.531C112.101 11.6633 112.022 11.7427 111.929 11.756C111.995 11.7825 112.075 11.756 112.168 11.703C112.247 11.6369 112.326 11.6104 112.379 11.6236H112.366ZM113.941 12.2853C113.967 12.3648 113.981 12.4442 113.967 12.5236C113.967 12.603 113.967 12.6824 113.994 12.7353C113.981 12.5765 113.967 12.4177 113.994 12.2456C114.007 12.0736 113.954 11.9016 113.822 11.7295C113.835 11.8883 113.861 11.9942 113.888 12.0736L113.835 12.0074C113.835 12.0074 113.835 12.0339 113.822 12.0471C113.822 12.0471 113.809 12.0736 113.795 12.1133C113.875 12.0339 113.928 12.0868 113.941 12.2721V12.2853ZM114.126 16.2291C114.192 16.11 114.219 16.0041 114.166 15.9247C114.126 15.8453 114.113 15.7395 114.153 15.6071C114.1 15.6998 114.073 15.7792 114.047 15.8718C114.02 15.9644 114.047 16.0835 114.126 16.2159V16.2291ZM114.417 16.7982C114.391 16.6658 114.417 16.5864 114.47 16.5732C114.523 16.5467 114.523 16.4409 114.457 16.2424L114.483 16.4673C114.457 16.3879 114.431 16.3615 114.417 16.4012C114.417 16.4409 114.391 16.4673 114.378 16.507C114.364 16.5467 114.351 16.56 114.325 16.5732C114.311 16.5732 114.285 16.5203 114.259 16.4144C114.232 16.335 114.206 16.3747 114.206 16.5335C114.206 16.6923 114.206 16.8247 114.219 16.9438C114.259 16.9438 114.272 16.8511 114.272 16.7188C114.272 16.5732 114.298 16.5467 114.364 16.6261L114.404 16.7982H114.417ZM114.457 13.0265C114.457 13.0265 114.47 13.0926 114.47 13.1191C114.47 13.1323 114.47 13.1588 114.483 13.172L114.444 13.0265H114.457ZM115.039 21.9463C115.039 21.9463 115.105 21.986 115.132 21.9992C115.158 22.0124 115.185 22.0257 115.225 22.0521C115.172 22.0257 115.105 21.986 115.039 21.9463ZM115.476 21.0199C115.41 20.9669 115.344 20.914 115.304 20.8611C115.251 20.7949 115.211 20.7287 115.158 20.6493C115.172 20.689 115.185 20.742 115.211 20.7949C115.238 20.8478 115.211 20.8875 115.185 20.8743C115.225 20.9008 115.264 20.9272 115.33 20.9802C115.397 21.0199 115.436 21.0463 115.476 21.0331V21.0199ZM115.516 11.6633C115.516 11.6633 115.569 11.5972 115.542 11.5442C115.516 11.4913 115.516 11.4516 115.516 11.4119C115.45 11.3457 115.41 11.3325 115.41 11.3722C115.45 11.4781 115.489 11.5707 115.516 11.6633ZM116.799 16.507C116.799 16.5997 116.773 16.6658 116.773 16.7188C116.773 16.7585 116.786 16.8511 116.852 16.9702C116.852 16.8776 116.866 16.785 116.852 16.6923C116.852 16.5997 116.826 16.5335 116.786 16.5203L116.799 16.507ZM116.879 16.5467C116.879 16.3747 116.919 16.2688 116.985 16.2159C117.051 16.1629 117.038 16.0571 116.985 15.8718C116.985 16.0174 116.958 16.1232 116.892 16.1497C116.826 16.1894 116.839 16.3085 116.892 16.5335L116.879 16.5467Z" fill="white"/>
<path d="M123.812 22.5706C123.144 22.5706 122.538 22.4447 121.993 22.193C121.448 21.9367 121.016 21.5682 120.695 21.0876C120.375 20.6025 120.215 20.0166 120.215 19.33C120.215 18.7259 120.334 18.2361 120.572 17.8608C120.81 17.4809 121.128 17.1834 121.526 16.9683C121.924 16.7532 122.364 16.593 122.844 16.4877C123.329 16.3779 123.817 16.2909 124.307 16.2268C124.947 16.1444 125.467 16.0826 125.865 16.0414C126.268 15.9957 126.561 15.9202 126.744 15.8149C126.931 15.7096 127.025 15.5265 127.025 15.2656V15.2107C127.025 14.5333 126.84 14.007 126.469 13.6316C126.103 13.2563 125.547 13.0687 124.801 13.0687C124.027 13.0687 123.421 13.238 122.982 13.5767C122.542 13.9154 122.233 14.277 122.055 14.6615L120.517 14.1122C120.791 13.4715 121.158 12.9726 121.615 12.6155C122.078 12.254 122.581 12.0022 123.126 11.8603C123.675 11.7139 124.215 11.6406 124.746 11.6406C125.085 11.6406 125.474 11.6818 125.913 11.7642C126.357 11.842 126.785 12.0045 127.197 12.2517C127.613 12.4988 127.959 12.8719 128.234 13.3708C128.508 13.8697 128.646 14.5379 128.646 15.3755V22.3234H127.025V20.8954H126.943C126.833 21.1242 126.65 21.3691 126.394 21.63C126.137 21.8909 125.796 22.1129 125.371 22.2959C124.945 22.479 124.426 22.5706 123.812 22.5706ZM124.059 21.1151C124.7 21.1151 125.24 20.9892 125.68 20.7375C126.124 20.4857 126.458 20.1608 126.682 19.7626C126.911 19.3644 127.025 18.9456 127.025 18.5062V17.0232C126.957 17.1056 126.806 17.1811 126.572 17.2498C126.343 17.3139 126.078 17.3711 125.776 17.4214C125.478 17.4672 125.188 17.5084 124.904 17.545C124.625 17.577 124.398 17.6045 124.224 17.6274C123.803 17.6823 123.409 17.7716 123.043 17.8951C122.682 18.0141 122.389 18.1949 122.165 18.4375C121.945 18.6755 121.835 19.0005 121.835 19.4124C121.835 19.9754 122.043 20.4011 122.46 20.6894C122.881 20.9732 123.414 21.1151 124.059 21.1151ZM133.223 15.9797V22.3234H131.603V11.778H133.168V13.4257H133.306C133.553 12.8902 133.928 12.4599 134.432 12.135C134.935 11.8054 135.585 11.6406 136.381 11.6406C137.095 11.6406 137.72 11.7871 138.256 12.08C138.791 12.3684 139.208 12.8078 139.505 13.3982C139.803 13.9841 139.951 14.7256 139.951 15.6227V22.3234H138.331V15.7325C138.331 14.9041 138.116 14.2587 137.686 13.7964C137.256 13.3296 136.665 13.0961 135.914 13.0961C135.397 13.0961 134.935 13.2083 134.528 13.4325C134.125 13.6568 133.807 13.9841 133.573 14.4143C133.34 14.8446 133.223 15.3663 133.223 15.9797ZM147.196 22.5431C146.208 22.5431 145.356 22.3097 144.642 21.8428C143.928 21.376 143.379 20.7329 142.995 19.9136C142.61 19.0943 142.418 18.1583 142.418 17.1056C142.418 16.0346 142.615 15.0894 143.008 14.2701C143.406 13.4463 143.96 12.8032 144.67 12.3409C145.384 11.8741 146.217 11.6406 147.169 11.6406C147.91 11.6406 148.579 11.778 149.174 12.0526C149.769 12.3272 150.256 12.7117 150.636 13.206C151.016 13.7003 151.251 14.277 151.343 14.9361H149.723C149.599 14.4555 149.325 14.0298 148.899 13.6591C148.478 13.2838 147.91 13.0961 147.196 13.0961C146.565 13.0961 146.011 13.2609 145.535 13.5905C145.063 13.9154 144.695 14.3754 144.429 14.9704C144.169 15.5609 144.038 16.2543 144.038 17.0507C144.038 17.8654 144.166 18.5748 144.423 19.179C144.683 19.7832 145.05 20.2523 145.521 20.5864C145.997 20.9206 146.555 21.0876 147.196 21.0876C147.617 21.0876 148 21.0144 148.343 20.8679C148.686 20.7215 148.977 20.5109 149.215 20.2363C149.453 19.9617 149.622 19.6321 149.723 19.2477H151.343C151.251 19.8701 151.025 20.4308 150.663 20.9297C150.306 21.424 149.833 21.8176 149.242 22.1106C148.656 22.3989 147.974 22.5431 147.196 22.5431ZM153.712 22.3234V11.778H155.332V22.3234H153.712ZM154.535 10.0204C154.22 10.0204 153.947 9.91282 153.718 9.6977C153.494 9.48258 153.382 9.22398 153.382 8.92189C153.382 8.61981 153.494 8.36121 153.718 8.14609C153.947 7.93097 154.22 7.82341 154.535 7.82341C154.851 7.82341 155.121 7.93097 155.346 8.14609C155.574 8.36121 155.689 8.61981 155.689 8.92189C155.689 9.22398 155.574 9.48258 155.346 9.6977C155.121 9.91282 154.851 10.0204 154.535 10.0204ZM161.403 22.5706C160.734 22.5706 160.128 22.4447 159.583 22.193C159.039 21.9367 158.606 21.5682 158.286 21.0876C157.965 20.6025 157.805 20.0166 157.805 19.33C157.805 18.7259 157.924 18.2361 158.162 17.8608C158.4 17.4809 158.718 17.1834 159.117 16.9683C159.515 16.7532 159.954 16.593 160.435 16.4877C160.92 16.3779 161.407 16.2909 161.897 16.2268C162.538 16.1444 163.057 16.0826 163.456 16.0414C163.858 15.9957 164.151 15.9202 164.334 15.8149C164.522 15.7096 164.616 15.5265 164.616 15.2656V15.2107C164.616 14.5333 164.43 14.007 164.06 13.6316C163.694 13.2563 163.137 13.0687 162.391 13.0687C161.618 13.0687 161.011 13.238 160.572 13.5767C160.133 13.9154 159.824 14.277 159.645 14.6615L158.107 14.1122C158.382 13.4715 158.748 12.9726 159.206 12.6155C159.668 12.254 160.172 12.0022 160.716 11.8603C161.265 11.7139 161.806 11.6406 162.336 11.6406C162.675 11.6406 163.064 11.6818 163.504 11.7642C163.948 11.842 164.376 12.0045 164.787 12.2517C165.204 12.4988 165.55 12.8719 165.824 13.3708C166.099 13.8697 166.236 14.5379 166.236 15.3755V22.3234H164.616V20.8954H164.533C164.424 21.1242 164.24 21.3691 163.984 21.63C163.728 21.8909 163.387 22.1129 162.961 22.2959C162.536 22.479 162.016 22.5706 161.403 22.5706ZM161.65 21.1151C162.291 21.1151 162.831 20.9892 163.27 20.7375C163.714 20.4857 164.048 20.1608 164.273 19.7626C164.501 19.3644 164.616 18.9456 164.616 18.5062V17.0232C164.547 17.1056 164.396 17.1811 164.163 17.2498C163.934 17.3139 163.668 17.3711 163.366 17.4214C163.069 17.4672 162.778 17.5084 162.494 17.545C162.215 17.577 161.989 17.6045 161.815 17.6274C161.394 17.6823 161 17.7716 160.634 17.8951C160.272 18.0141 159.979 18.1949 159.755 18.4375C159.535 18.6755 159.425 19.0005 159.425 19.4124C159.425 19.9754 159.634 20.4011 160.05 20.6894C160.471 20.9732 161.005 21.1151 161.65 21.1151ZM170.814 8.2628V22.3234H169.193V8.2628H170.814Z" fill="white"/>
<defs>
<linearGradient id="paint0_linear_273_925" x1="-12.7091" y1="3.99999" x2="185.13" y2="47.8193" gradientUnits="userSpaceOnUse">
<stop stop-color="#FF459A"/>
<stop offset="1" stop-color="#FF829D"/>
</linearGradient>
</defs>
</svg>
