<svg width="26" height="26" viewBox="0 0 26 26" fill="none" xmlns="http://www.w3.org/2000/svg">
<path d="M13 2.07563L14.7877 1L16.1955 2.54622L18.2291 2.05322L19.1006 3.95798L21.1788 4.09244L21.4693 6.15406L23.4134 6.89356L23.0782 8.97759L24.7318 10.2549L23.7933 12.1148L25 13.8403L23.5698 15.3641L24.1955 17.3361L22.3855 18.3669L22.4078 20.4734L20.3743 20.8992L19.7709 22.916L17.6927 22.7143L16.5531 24.4622L14.6089 23.6779L13 25L11.391 23.6779L9.44692 24.4622L8.30727 22.7143L6.20671 22.916L5.62571 20.8992L3.59219 20.4734L3.61452 18.3669L1.78214 17.3361L2.43017 15.3641L1 13.8403L2.18435 12.1148L1.26815 10.2549L2.92179 8.97759L2.56424 6.89356L4.53073 6.15406L4.79887 4.09244L6.89944 3.95798L7.77094 2.05322L9.80447 2.54622L11.2123 1L13 2.07563Z" fill="#FF619E" stroke="white" stroke-miterlimit="10"/>
<path d="M10.6313 18.9945C10.2067 18.9945 9.7821 18.8376 9.44691 18.5015L5.82681 14.8712C5.35754 14.4006 5.35754 13.6387 5.82681 13.1681C6.29608 12.6975 7.05585 12.6975 7.52512 13.1681L10.6313 16.283L18.0949 8.79838C18.5642 8.32779 19.324 8.32779 19.7933 8.79838C20.2626 9.26896 20.2626 10.0309 19.7933 10.5015L11.7933 18.5239C11.4804 18.8376 11.0335 19.0169 10.6089 19.0169L10.6313 18.9945Z" fill="white"/>
</svg>
