<svg width="54" height="54" viewBox="0 0 54 54" fill="none" xmlns="http://www.w3.org/2000/svg">
<circle cx="27" cy="27" r="27" fill="#DDEFF9"/>
<path d="M7 17.7969V36.5469C7 38.4854 8.57711 40.0625 10.5156 40.0625H43.4844C45.4229 40.0625 47 38.4854 47 36.5469V17.7969L26.6755 17.0156L7 17.7969Z" fill="#0076EA"/>
<path d="M47 15.4531C47 13.5146 45.4229 11.9375 43.4844 11.9375H10.5156C8.57711 11.9375 7 13.5146 7 15.4531V17.7969H47V15.4531Z" fill="#2191FB"/>
<path d="M32.3125 31.8594H28.1719C27.5247 31.8594 27 32.3841 27 33.0312C27 33.6784 27.5247 34.2031 28.1719 34.2031H32.3125C32.9597 34.2031 33.4844 33.6784 33.4844 33.0312C33.4844 32.3841 32.9597 31.8594 32.3125 31.8594Z" fill="#F3F4F9"/>
<path d="M41.1406 31.9375H37C36.3528 31.9375 35.8281 32.4622 35.8281 33.1094C35.8281 33.7566 36.3528 34.2812 37 34.2812H41.1406C41.7878 34.2812 42.3125 33.7566 42.3125 33.1094C42.3125 32.4622 41.7878 31.9375 41.1406 31.9375Z" fill="#F3F4F9"/>
<path d="M41.1406 27.1719H28.1719C27.5247 27.1719 27 27.6966 27 28.3438C27 28.9909 27.5247 29.5156 28.1719 29.5156H41.1406C41.7878 29.5156 42.3125 28.9909 42.3125 28.3438C42.3125 27.6966 41.7878 27.1719 41.1406 27.1719Z" fill="#F3F4F9"/>
<path d="M28.1719 24.75H41.1406C41.7878 24.75 42.3125 24.2253 42.3125 23.5781C42.3125 22.9309 41.7878 22.4062 41.1406 22.4062H28.1719C27.5247 22.4062 27 22.9309 27 23.5781C27 24.2253 27.5247 24.75 28.1719 24.75Z" fill="#F3F4F9"/>
<path fill-rule="evenodd" clip-rule="evenodd" d="M18.9763 27.0656C19.855 26.5035 20.4375 25.519 20.4375 24.3984C20.4375 22.651 19.0209 21.2344 17.2734 21.2344C15.526 21.2344 14.1094 22.651 14.1094 24.3984C14.1094 25.5077 14.6802 26.4836 15.5441 27.0485C13.3533 27.7622 11.7656 29.8242 11.7656 32.25V34.5937C11.7656 35.0245 12.1161 35.375 12.5469 35.375H21.9219C22.3527 35.375 22.7031 35.0245 22.7031 34.5937V32.25C22.7031 29.8433 21.1404 27.7947 18.9763 27.0656Z" fill="#98EBFF"/>
</svg>
