<svg width="54" height="54" viewBox="0 0 54 54" fill="none" xmlns="http://www.w3.org/2000/svg">
<circle cx="27" cy="27" r="27" fill="#DDEFF9"/>
<path d="M36.7188 32.25V46.0312C36.7188 46.4906 36.4759 46.9238 36.0822 47.16C35.8722 47.2847 35.6425 47.3438 35.4062 47.3438C35.1897 47.3438 34.9797 47.2912 34.7828 47.1862L26.875 42.9272L18.9672 47.1862C18.5603 47.4028 18.0681 47.3963 17.6678 47.16C17.2741 46.9238 17.0312 46.4906 17.0312 46.0312V32.25C17.0312 31.5281 17.6219 30.9375 18.3438 30.9375H35.4062C36.1281 30.9375 36.7188 31.5281 36.7188 32.25Z" fill="#0076EA"/>
<path fill-rule="evenodd" clip-rule="evenodd" d="M40.6562 21.75C40.6562 22.7475 40.5513 23.7188 40.3478 24.6506C39.1272 30.3403 34.3956 34.7306 28.5353 35.4263C27.9906 35.4984 27.4394 35.5312 26.875 35.5312C19.2691 35.5312 13.0938 29.3559 13.0938 21.75C13.0938 14.1441 19.2691 7.96875 26.875 7.96875C34.4809 7.96875 40.6562 14.1441 40.6562 21.75Z" fill="url(#paint0_linear_273_772)"/>
<path d="M40.348 24.6506C39.1274 30.3403 34.3958 34.7306 28.5355 35.4262L21.7236 28.6143L22.2814 28.5422L26.3764 25.1887L23.8893 22.7015L28.2271 14.1965L33.4443 19.4137L34.363 18.659L40.348 24.6506Z" fill="url(#paint1_linear_273_772)"/>
<path fill-rule="evenodd" clip-rule="evenodd" d="M23.6723 17.6262L25.1141 14.7446C25.4475 14.0778 26.1293 13.6565 26.8748 13.6565C27.6203 13.6565 28.3022 14.0778 28.6356 14.7446L30.0773 17.6262L33.2634 18.1065C34.0004 18.2181 34.6114 18.7359 34.8417 19.4453C35.0721 20.154 34.8824 20.9323 34.3515 21.456L32.0566 23.7175L32.5836 26.8963C32.7056 27.6313 32.4018 28.3729 31.7987 28.8113C31.1956 29.249 30.3969 29.3094 29.7348 28.9661L26.8748 27.4824L24.0149 28.9661C23.3527 29.3094 22.5541 29.249 21.951 28.8113C21.3479 28.3729 21.0441 27.6313 21.1661 26.8963L21.6931 23.7175L19.3982 21.456C18.8673 20.9323 18.6776 20.154 18.908 19.4453C19.1383 18.7359 19.7493 18.2181 20.4862 18.1065L23.6723 17.6262Z" fill="#EFFBFF"/>
<path fill-rule="evenodd" clip-rule="evenodd" d="M26.875 6.65625C35.2054 6.65625 41.9688 13.4196 41.9688 21.75C41.9688 30.0804 35.2054 36.8438 26.875 36.8438C18.5446 36.8438 11.7812 30.0804 11.7812 21.75C11.7812 13.4196 18.5446 6.65625 26.875 6.65625ZM26.875 9.28125C19.9936 9.28125 14.4062 14.8686 14.4062 21.75C14.4062 28.6314 19.9936 34.2188 26.875 34.2188C33.7564 34.2188 39.3438 28.6314 39.3438 21.75C39.3438 14.8686 33.7564 9.28125 26.875 9.28125Z" fill="url(#paint2_linear_273_772)"/>
<defs>
<linearGradient id="paint0_linear_273_772" x1="26.875" y1="7.96875" x2="36.5" y2="46.5" gradientUnits="userSpaceOnUse">
<stop stop-color="#7AD0FF"/>
<stop offset="0.875" stop-color="#2B9EFA"/>
</linearGradient>
<linearGradient id="paint1_linear_273_772" x1="38.8754" y1="34.4688" x2="25.7058" y2="21.2991" gradientUnits="userSpaceOnUse">
<stop offset="0.2058" stop-color="#126696" stop-opacity="0"/>
<stop offset="0.369792" stop-color="#20A8F4" stop-opacity="0.078"/>
<stop offset="0.901042" stop-color="#1A597C" stop-opacity="0.29"/>
</linearGradient>
<linearGradient id="paint2_linear_273_772" x1="42" y1="52.5" x2="4" y2="9.5" gradientUnits="userSpaceOnUse">
<stop stop-color="#0076EA"/>
<stop offset="0.921875" stop-color="#70DDFF"/>
</linearGradient>
</defs>
</svg>
