<svg width="54" height="54" viewBox="0 0 54 54" fill="none" xmlns="http://www.w3.org/2000/svg">
<circle cx="27" cy="27" r="27" fill="#DDEFF9"/>
<path d="M48.5 27C48.5 28.792 46.2985 30.269 45.8575 31.921C45.4025 33.629 46.554 36.009 45.6895 37.5035C44.811 39.0225 42.1685 39.2045 40.9365 40.4365C39.7045 41.6685 39.5225 44.311 38.0035 45.1895C36.509 46.054 34.129 44.9025 32.421 45.3575C30.769 45.7985 29.292 48 27.5 48C25.708 48 24.231 45.7985 22.579 45.3575C20.871 44.9025 18.491 46.054 16.9965 45.1895C15.4775 44.311 15.2955 41.6685 14.0635 40.4365C12.8315 39.2045 10.189 39.0225 9.3105 37.5035C8.446 36.009 9.5975 33.629 9.1425 31.921C8.7015 30.269 6.5 28.792 6.5 27C6.5 25.208 8.7015 23.731 9.1425 22.079C9.5975 20.371 8.446 17.991 9.3105 16.4965C10.189 14.9775 12.8315 14.7955 14.0635 13.5635C15.2955 12.3315 15.4775 9.689 16.9965 8.8105C18.491 7.946 20.871 9.0975 22.579 8.6425C24.231 8.2015 25.708 6 27.5 6C29.292 6 30.769 8.2015 32.421 8.6425C34.129 9.0975 36.509 7.946 38.0035 8.8105C39.5225 9.689 39.7045 12.3315 40.9365 13.5635C42.1685 14.7955 44.811 14.9775 45.6895 16.4965C46.554 17.991 45.4025 20.371 45.8575 22.079C46.2985 23.731 48.5 25.208 48.5 27Z" fill="url(#paint0_linear_273_762)"/>
<path d="M33.5692 20.742L25.5752 28.736L21.4312 24.5955C20.5317 23.696 19.0722 23.696 18.1727 24.5955C17.2732 25.495 17.2732 26.9545 18.1727 27.854L23.9862 33.6675C24.8612 34.5425 26.2822 34.5425 27.1572 33.6675L36.8242 24.0005C37.7237 23.101 37.7237 21.6415 36.8242 20.742C35.9247 19.8425 34.4687 19.8425 33.5692 20.742Z" fill="#EFFBFF"/>
<defs>
<linearGradient id="paint0_linear_273_762" x1="0.62" y1="-10.6727" x2="18.5" y2="27" gradientUnits="userSpaceOnUse">
<stop stop-color="#B9F2FF"/>
<stop offset="1" stop-color="#118DEF"/>
</linearGradient>
</defs>
</svg>
