<?xml version="1.0" standalone="no"?>
<!DOCTYPE svg PUBLIC "-//W3C//DTD SVG 20010904//EN"
 "http://www.w3.org/TR/2001/REC-SVG-20010904/DTD/svg10.dtd">
<svg version="1.0" xmlns="http://www.w3.org/2000/svg"
 width="1084.000000pt" height="1084.000000pt" viewBox="0 0 1084.000000 1084.000000"
 preserveAspectRatio="xMidYMid meet">
<metadata>
Created by potrace 1.14, written by Peter Selinger 2001-2017
</metadata>
<g transform="translate(0.000000,1084.000000) scale(0.100000,-0.100000)"
fill="#000000" stroke="none">
<path d="M5188 10835 c-2 -2 -57 -6 -123 -10 -66 -3 -133 -8 -150 -10 -16 -2
-61 -6 -98 -10 -37 -3 -76 -8 -85 -10 -20 -3 -129 -18 -152 -20 -93 -8 -528
-106 -695 -156 -1076 -324 -2002 -945 -2693 -1808 -163 -203 -379 -517 -472
-686 -12 -22 -37 -67 -55 -100 -135 -239 -301 -621 -393 -900 -53 -161 -139
-479 -156 -575 -3 -19 -8 -46 -11 -60 -22 -102 -38 -200 -50 -295 -4 -27 -8
-57 -10 -65 -2 -8 -7 -46 -11 -85 -3 -38 -8 -78 -9 -87 -26 -139 -27 -918 -1
-1078 2 -14 7 -52 10 -85 4 -33 8 -71 10 -85 2 -14 9 -61 16 -105 6 -44 13
-87 14 -95 160 -883 485 -1640 997 -2325 462 -619 1029 -1115 1716 -1504 305
-172 802 -380 1121 -467 66 -18 238 -62 267 -69 104 -23 256 -54 280 -58 227
-38 251 -41 360 -51 39 -4 84 -9 100 -11 168 -24 865 -25 990 -1 11 2 61 7
110 11 50 4 92 8 95 10 3 1 30 6 61 9 31 4 66 8 77 11 11 2 37 6 58 10 22 3
54 8 73 11 31 5 326 69 361 78 540 143 972 321 1421 583 155 91 449 289 549
370 8 7 44 35 80 63 559 443 1049 1026 1394 1662 159 294 317 667 402 953 28
92 85 294 88 309 2 12 9 39 14 61 6 22 14 56 17 75 3 19 10 49 15 65 12 42 57
313 75 455 1 8 5 47 9 85 4 39 9 88 12 110 22 194 22 785 0 925 -2 14 -7 60
-10 102 -4 43 -8 83 -11 90 -2 7 -6 40 -9 73 -4 33 -11 87 -16 120 -6 33 -15
85 -20 115 -106 618 -330 1217 -684 1825 -85 146 -276 423 -381 554 -202 250
-365 427 -587 636 -43 42 -182 162 -295 256 -57 47 -267 202 -348 256 -542
362 -1091 609 -1695 762 -176 45 -464 102 -580 116 -25 3 -62 7 -82 10 -80 11
-115 14 -183 20 -38 3 -92 9 -120 12 -51 6 -602 13 -607 8z"/>
</g>
</svg>
